<svg width="63" height="45" viewBox="0 0 63 45" fill="#24242F" xmlns="http://www.w3.org/2000/svg">
<path d="M56.779 21.2523C59.4583 21.5775 60.837 23.1382 60.837 25.7525C60.837 28.2497 60.837 30.7339 60.837 33.2311C60.837 33.2701 60.85 33.3092 60.876 33.4522C61.1622 33.4522 61.4743 33.4392 61.7735 33.4522C62.4498 33.4782 62.84 33.8424 62.853 34.5187C62.866 35.8324 62.866 37.133 62.853 38.4467C62.84 39.123 62.4628 39.5002 61.7865 39.5262C61.5003 39.5392 61.2012 39.5262 60.837 39.5262C60.837 40.7618 60.837 41.9584 60.837 43.1549C60.837 44.2865 60.5379 44.5986 59.4193 44.5986C58.5999 44.5986 57.7675 44.6116 56.9481 44.5986C56.2198 44.5856 55.9076 44.3385 55.7646 43.6362C55.5044 42.4136 55.2573 41.204 55.0362 39.9814C54.9712 39.6432 54.8541 39.5002 54.5029 39.5392C54.3989 39.5522 54.2948 39.5392 54.1908 39.5392C39.0254 39.5392 23.8471 39.5392 8.68171 39.5262C8.07042 39.5262 7.84931 39.6953 7.75826 40.2805C7.58918 41.3991 7.32906 42.5176 7.10795 43.6362C6.96488 44.3385 6.63972 44.5986 5.92437 44.6116C5.01393 44.6246 4.10349 44.6246 3.19305 44.6116C2.41267 44.5986 2.03549 44.2215 2.03549 43.4281C2.02248 42.1665 2.03549 40.8918 2.03549 39.5392C1.67131 39.5392 1.34615 39.5522 1.021 39.5392C0.422705 39.5002 0.0325158 39.136 0.0195095 38.5247C-0.00650315 37.172 -0.00650315 35.8194 0.0195095 34.4667C0.0325158 33.8684 0.422705 33.5043 1.021 33.4652C1.33315 33.4392 1.6453 33.4652 2.03549 33.4652C2.03549 33.1661 2.03549 32.919 2.03549 32.6849C2.03549 30.3827 2.03549 28.0806 2.03549 25.7785C2.03549 23.1382 3.41416 21.5905 6.09346 21.2653C6.09346 21.0312 6.09346 20.7841 6.09346 20.537C6.09346 15.1654 6.09346 9.80676 6.09346 4.43515C6.09346 1.6518 7.75827 0 10.5546 0C24.4714 0 38.4011 0 52.3179 0C55.1403 0 56.7921 1.6518 56.7921 4.48718C56.7921 9.83277 56.7921 15.1784 56.7921 20.524C56.779 20.7451 56.779 20.9792 56.779 21.2523ZM32.4442 21.2523C32.4442 20.0037 32.4442 18.7811 32.4442 17.5585C32.4442 14.8532 34.1221 13.1624 36.8274 13.1624C40.6252 13.1624 44.4361 13.1624 48.2339 13.1624C51.0823 13.1624 52.7341 14.8012 52.7341 17.6366C52.7341 18.8331 52.7341 20.0297 52.7341 21.2393C53.4494 21.2393 54.0867 21.2393 54.7631 21.2393C54.7631 21.0052 54.7631 20.8231 54.7631 20.641C54.7631 15.2174 54.7631 9.78075 54.7631 4.35711C54.7631 2.80936 53.9697 2.01598 52.4219 2.01598C38.4402 2.01598 24.4584 2.01598 10.4766 2.01598C8.88981 2.01598 8.10943 2.79636 8.10943 4.39613C8.10943 9.80676 8.10943 15.2044 8.10943 20.615C8.10943 20.8231 8.10943 21.0182 8.10943 21.2393C8.81178 21.2393 9.46209 21.2393 10.1384 21.2393C10.1384 19.8736 10.1254 18.547 10.1384 17.2204C10.1644 14.9703 11.9073 13.1884 14.1704 13.1754C18.2414 13.1494 22.3253 13.1494 26.3963 13.1754C28.6464 13.1884 30.3762 14.9573 30.4153 17.2204C30.4283 18.3779 30.4153 19.5485 30.4153 20.706C30.4153 20.8881 30.4413 21.0702 30.4543 21.2523C31.1306 21.2523 31.7549 21.2523 32.4442 21.2523ZM58.808 33.4262C58.808 30.7469 58.808 28.1327 58.808 25.5184C58.808 24.1397 57.9756 23.3073 56.597 23.3073C39.8188 23.3073 23.0537 23.3073 6.27554 23.3073C4.87086 23.3073 4.05147 24.1397 4.05147 25.5574C4.05147 27.9896 4.05147 30.4218 4.05147 32.8409C4.05147 33.023 4.07748 33.2051 4.07748 33.4132C22.3123 33.4262 40.5212 33.4262 58.808 33.4262ZM2.04849 37.4712C21.675 37.4712 41.2365 37.4712 60.785 37.4712C60.785 36.7818 60.785 36.1445 60.785 35.5202C41.1845 35.5202 21.623 35.5202 2.04849 35.5202C2.04849 36.1706 2.04849 36.7949 2.04849 37.4712ZM28.3733 21.2523C28.3733 19.7956 28.4253 18.3909 28.3603 16.9862C28.3212 16.0108 27.4368 15.2174 26.4483 15.2174C22.3253 15.2044 18.2153 15.2044 14.0923 15.2174C13.1299 15.2174 12.2454 15.9978 12.2064 16.9472C12.1414 18.3779 12.1934 19.8086 12.1934 21.2653C17.578 21.2523 22.9366 21.2523 28.3733 21.2523ZM34.4732 21.2393C39.8708 21.2393 45.2555 21.2393 50.6791 21.2393C50.6791 19.8086 50.7311 18.3909 50.6661 16.9862C50.6141 15.9848 49.7166 15.2174 48.6891 15.2044C44.6181 15.1914 40.5342 15.1914 36.4632 15.2044C35.3577 15.2044 34.4992 16.0758 34.4862 17.1813C34.4472 18.521 34.4732 19.8476 34.4732 21.2393ZM4.06447 42.5827C4.37662 42.5827 4.63675 42.6217 4.87086 42.5697C5.02694 42.5306 5.26105 42.3876 5.28707 42.2575C5.49517 41.3861 5.65124 40.5017 5.83333 39.5782C5.22203 39.5782 4.64976 39.5782 4.06447 39.5782C4.06447 40.5927 4.06447 41.5422 4.06447 42.5827ZM58.769 42.5566C58.769 41.5422 58.769 40.5667 58.769 39.5652C58.1837 39.5652 57.6245 39.5652 57.0652 39.5652C57.0522 39.6302 57.0262 39.6692 57.0392 39.7083C57.1562 40.3196 57.2863 40.9439 57.4034 41.5552C57.6115 42.6217 57.6115 42.6217 58.769 42.5566Z" />
</svg>
