<svg width="62" height="65" viewBox="0 0 62 65" fill="#24242F" xmlns="http://www.w3.org/2000/svg">
<g id="&#208;&#168;&#208;&#176;&#209;&#132;&#208;&#184;">
<g id="Group">
<path id="Vector" d="M0 31.9955C0 22.592 -1.21131e-08 13.2014 0.0130063 3.79784C-1.21131e-08 3.26458 0.0520252 2.69231 0.221107 2.18506C0.637309 0.897435 1.8469 0.0390189 3.19955 0C3.32962 0 3.45968 0 3.57674 0C21.6555 0 39.7343 0 57.8131 0C59.0747 0 60.0762 0.416202 60.8045 1.45671C61.1817 1.98997 61.3378 2.60126 61.3768 3.25158C61.3898 3.48569 61.3898 3.7198 61.3898 3.95392C61.3898 22.67 61.3898 41.3731 61.3898 60.0891C61.3898 60.4533 61.3768 60.8045 61.3378 61.1687C61.1167 62.8075 59.79 63.991 58.1252 64.0301C57.9951 64.0301 57.8651 64.0301 57.748 64.0301C39.7083 64.0301 21.6815 64.0301 3.64177 64.0171C3.10851 64.0171 2.52322 63.939 2.04199 63.7439C0.897435 63.2887 0.234114 62.3913 0.0650315 61.1557C-6.2988e-08 60.8175 0 60.4663 0 60.1282C0 50.7506 0 41.3731 0 31.9955ZM1.52174 32.0085C1.52174 41.3601 1.52174 50.7246 1.52174 60.0761C1.52174 60.3883 1.52174 60.7135 1.57376 61.0256C1.71683 61.845 2.34114 62.4173 3.18655 62.4823C3.38164 62.4953 3.56373 62.4953 3.75882 62.4953C21.7075 62.4953 39.6562 62.4953 57.605 62.4953C57.8 62.4953 57.9821 62.5083 58.1772 62.4953C59.0356 62.4303 59.686 61.858 59.816 60.9996C59.8681 60.6874 59.868 60.3623 59.868 60.0501C59.868 41.3601 59.868 22.67 59.868 3.97993C59.868 3.81085 59.868 3.64177 59.868 3.47269C59.816 2.21107 59.1267 1.53474 57.8521 1.53474C39.7603 1.53474 21.6555 1.53474 3.56373 1.53474C2.25009 1.53474 1.56076 2.21107 1.52174 3.5117C1.52174 3.7068 1.52174 3.88889 1.52174 4.08398C1.52174 13.3835 1.52174 22.696 1.52174 32.0085Z" fill="#24242F"/>
<path id="Vector_2" d="M58.2162 32.0476C58.2162 40.9439 58.2162 49.8272 58.2162 58.7235C58.2162 58.9576 58.2292 59.1918 58.2032 59.4259C58.1251 60.2193 57.6309 60.6745 56.8245 60.7135C56.6554 60.7265 56.4863 60.7135 56.3173 60.7135C39.24 60.7135 22.1497 60.7135 5.07239 60.7135C4.86429 60.7135 4.64318 60.7265 4.43508 60.7005C3.75875 60.6485 3.30353 60.2193 3.19948 59.5429C3.16046 59.3088 3.17347 59.0747 3.17347 58.8406C3.17347 40.9309 3.17347 23.0212 3.17347 5.11151C3.17347 4.90341 3.17347 4.6823 3.19948 4.4742C3.29052 3.78487 3.75875 3.35566 4.46109 3.30363C4.65619 3.29063 4.83828 3.30363 5.03337 3.30363C22.1367 3.30363 39.24 3.30363 56.3433 3.30363C56.5384 3.30363 56.7205 3.29063 56.9155 3.30363C57.6309 3.35566 58.0861 3.78487 58.1902 4.48721C58.2292 4.73433 58.2162 4.99445 58.2162 5.24157C58.2162 14.1899 58.2162 23.1253 58.2162 32.0476ZM34.6097 42.8428C34.5837 42.8428 34.5577 42.8428 34.5317 42.8428C34.3886 44.5466 34.2586 46.2505 34.1155 47.9673C34.0505 48.7737 33.9854 49.5671 33.8944 50.3735C33.8293 50.9067 33.5042 51.3099 32.9969 51.401C31.5923 51.6481 30.1746 51.7131 28.7699 51.453C28.2366 51.3489 27.9375 50.9718 27.8334 50.4515C27.7944 50.2044 27.7944 49.9443 27.7944 49.6971C27.7034 44.4686 27.5993 39.2401 27.5213 34.0115C27.4953 32.2947 27.4432 30.5779 27.5213 28.874C27.6383 26.2988 28.1976 23.8146 29.03 21.3694C29.3031 20.563 29.8624 20.0167 30.6948 20.0297C31.5272 20.0428 32.0865 19.6526 32.6328 19.1453C33.153 18.6771 33.6733 18.2089 34.1545 17.7146C34.8698 16.9863 35.2991 16.1018 35.4811 15.0874C35.5722 14.5541 35.5072 14.4891 34.9869 14.4891C34.7268 14.4891 34.4797 14.5151 34.2195 14.4891C33.8424 14.45 33.5952 14.5151 33.4912 14.9573C33.4131 15.3085 33.101 15.4515 32.7498 15.4255C32.4247 15.3995 32.1385 15.2304 32.1125 14.9183C32.0735 14.4891 31.8394 14.4891 31.5272 14.4891C29.8364 14.5021 28.1456 14.4891 26.4418 14.4891C25.8565 14.4891 25.8565 14.4891 25.8565 15.0613C25.8565 29.5764 25.8565 44.1044 25.8565 58.6195C25.8565 59.1918 25.8565 59.1918 26.4418 59.1918C36.3266 59.1918 46.2114 59.1918 56.0961 59.1918C56.6684 59.1918 56.6814 59.1918 56.6814 58.5935C56.6814 44.0914 56.6814 29.6024 56.6814 15.1004C56.6814 14.4891 56.6814 14.4761 56.0571 14.4761C53.4949 14.4761 50.9326 14.4761 48.3704 14.4761C48.2663 14.4761 48.1493 14.45 48.0583 14.4891C47.9542 14.5411 47.7981 14.6451 47.7981 14.7232C47.8241 16.0238 47.3689 17.1684 46.6926 18.2349C46.5495 18.469 46.5755 18.5991 46.7836 18.7551C47.2649 19.1453 47.7071 19.5615 48.2013 19.9257C48.3444 20.0297 48.5915 20.0818 48.7606 20.0428C49.2938 19.9127 49.7621 20.0167 50.2303 20.2639C51.8301 21.1223 53.1307 22.2798 53.794 23.9967C54.4183 25.6095 54.9516 27.2613 55.4849 28.9001C55.745 29.7195 55.4849 30.2527 54.6915 30.5909C54.0932 30.838 53.4559 31.0331 52.8316 31.2152C52.2463 31.3843 52.1682 31.4623 52.2203 32.0346C52.4804 34.896 52.7535 37.7704 53.0137 40.6317C53.1047 41.5552 52.8836 41.8283 51.9601 41.8934C48.6695 42.1275 45.3659 42.3096 42.0623 42.0624C41.6982 42.0364 41.5941 42.1405 41.5811 42.5047C41.5681 43.5191 41.5031 44.5336 41.4771 45.5481C41.425 47.0308 41.386 48.5136 41.334 49.9963C41.295 50.9197 40.9048 51.388 40.0073 51.453C38.9148 51.531 37.8093 51.5831 36.7167 51.544C35.5592 51.505 35.208 51.0758 35.13 49.9183C35.0389 48.5006 34.9349 47.0959 34.8308 45.6782C34.7788 44.7287 34.6878 43.7793 34.6097 42.8428ZM40.2024 39.071C40.2415 38.5637 40.2805 38.0565 40.2935 37.5493C40.3715 34.7399 40.7357 31.9435 40.5016 29.1212C40.3065 26.728 39.8773 24.3869 39.214 22.0847C39.1099 21.7206 38.9408 21.4865 38.5246 21.4865C36.0534 21.4995 33.5692 21.4865 31.098 21.4865C30.7208 21.4865 30.5387 21.6425 30.4217 22.0067C29.6803 24.2438 29.1601 26.5329 29.056 28.887C28.978 30.5779 29.03 32.2687 29.056 33.9595C29.1341 39.032 29.2381 44.1174 29.3292 49.1899C29.3292 49.359 29.3422 49.5281 29.3292 49.6971C29.3162 49.9443 29.4462 50.0353 29.6803 50.0353C30.4607 50.0223 31.2411 50.0223 32.0215 50.0093C32.3336 50.0093 32.4507 49.8662 32.4767 49.5411C32.7238 46.3545 32.9839 43.168 33.2441 39.9944C33.4261 37.6923 33.6212 35.4032 33.8163 33.1011C33.9204 31.7614 33.8944 30.4348 33.036 29.2902C32.9319 29.1602 32.8669 29.0041 32.7888 28.848C32.4897 28.2888 32.5677 27.8856 33.0099 27.6514C33.4261 27.4303 33.8163 27.5734 34.1155 28.0676C34.4536 28.6529 34.7918 29.2382 35.117 29.8365C35.208 30.0186 35.273 30.2267 35.286 30.4348C35.5462 33.8685 35.7803 37.3151 36.0274 40.7488C36.2355 43.7012 36.4566 46.6537 36.6647 49.6061C36.6777 49.8792 36.7428 50.0353 37.0549 50.0353C37.8093 50.0093 38.5766 50.0093 39.344 49.9963C39.6952 49.9963 39.8513 49.8532 39.8513 49.463C39.9553 46.0034 40.0854 42.5437 40.2024 39.071ZM41.295 4.82537C36.3656 4.82537 31.4362 4.82537 26.5068 4.82537C25.7914 4.82537 25.8695 4.76034 25.8695 5.47569C25.8695 7.7778 25.8695 10.0929 25.8695 12.395C25.8695 12.9413 25.8695 12.9543 26.4157 12.9543C28.4057 12.9543 30.3957 12.9543 32.3856 12.9673C32.7368 12.9673 33.036 12.8893 33.3351 12.7202C34.2065 12.213 35.104 12.239 35.9884 12.7462C36.2095 12.8763 36.4956 12.9673 36.7428 12.9673C38.9408 12.9803 41.1389 12.9803 43.35 12.9673C43.5841 12.9673 43.8442 12.8893 44.0653 12.7852C44.9237 12.343 45.7561 12.343 46.6145 12.7722C46.8357 12.8763 47.0828 12.9673 47.3299 12.9673C50.2693 12.9803 53.2087 12.9803 56.1612 12.9803C56.7074 12.9803 56.7074 12.9673 56.7074 12.4211C56.7074 10.1189 56.7074 7.80382 56.7074 5.5017C56.7074 4.78635 56.7335 4.86439 56.0441 4.86439C51.1147 4.82537 46.2114 4.82537 41.295 4.82537ZM24.3477 32.5548C24.3477 29.3423 24.3477 26.1167 24.3477 22.9041C24.3477 22.2668 24.3477 22.2538 23.6844 22.2538C21.4213 22.2668 19.1582 22.2928 16.8951 22.2928C13.0713 22.2928 9.23441 22.2668 5.41055 22.2538C4.69521 22.2538 4.69521 22.2538 4.69521 22.9822C4.69521 29.3293 4.69521 35.6763 4.69521 42.0234C4.69521 42.1275 4.70821 42.2315 4.69521 42.3356C4.66919 42.6217 4.77324 42.7648 5.0854 42.7648C5.5016 42.7518 5.93081 42.7518 6.36001 42.7648C6.60713 42.7648 6.69818 42.7128 6.63315 42.4266C6.45106 41.6853 6.59413 40.9959 7.04935 40.3846C7.17941 40.2155 7.16641 40.1115 7.04935 39.9424C6.37302 38.993 6.37302 38.0175 7.03634 37.055C7.16641 36.8599 7.1534 36.7429 7.02334 36.5608C6.43805 35.7154 6.37302 34.8309 6.88027 33.9335C7.37451 33.0621 8.16789 32.7109 9.15637 32.7109C12.8372 32.7239 16.5179 32.7629 20.1987 32.6979C22.2277 32.6589 23.5283 34.8309 22.3448 36.5087C22.1757 36.7429 22.2147 36.8859 22.3578 37.12C22.9561 38.0175 22.9561 38.9539 22.3578 39.8514C22.2017 40.0855 22.1757 40.2286 22.3578 40.4497C22.6829 40.8789 22.826 41.3991 22.8 41.9324C22.787 42.1795 22.761 42.4266 22.735 42.6737C23.0081 42.6997 23.2812 42.7128 23.5544 42.7388C23.5934 42.7388 23.6454 42.7388 23.6844 42.7388C24.3477 42.7388 24.3477 42.7388 24.3477 42.0364C24.3477 38.9019 24.3477 35.7284 24.3477 32.5548ZM14.541 44.2995C11.4975 44.2995 8.44102 44.2995 5.39755 44.2995C4.6822 44.2995 4.6822 44.2995 4.6822 45.0279C4.6822 46.2505 4.6822 47.4861 4.6822 48.7087C4.6822 52.0123 4.6822 55.3159 4.6822 58.6065C4.6822 59.1657 4.6822 59.1787 5.21546 59.1787C5.93081 59.1918 6.63315 59.1657 7.32248 59.1918C7.69966 59.2048 7.82973 59.0617 7.92077 58.7235C8.31096 57.3579 8.51906 55.9662 8.5971 54.5355C8.62311 53.9632 8.81821 53.3779 9.06533 52.8447C9.48153 51.9472 10.2359 51.453 11.2374 51.466C12.2389 51.479 12.9412 52.0253 13.4094 52.8837C13.8256 53.6771 13.8907 54.5225 13.8907 55.4069C13.8907 56.4994 13.9947 57.605 14.0207 58.6975C14.0337 59.0877 14.1768 59.1787 14.554 59.1918C14.9962 59.2048 15.0352 58.9316 15.0482 58.6325C15.1003 57.3839 15.1393 56.1353 15.1783 54.8997C15.2043 53.8722 15.4254 52.9227 16.1798 52.1683C17.2073 51.1278 18.8591 51.2579 19.7435 52.4155C20.2898 53.1308 20.5369 53.9632 20.5239 54.8476C20.5109 56.2003 20.823 57.4879 21.1742 58.7756C21.2522 59.0747 21.3823 59.1918 21.6945 59.1787C22.3708 59.1527 23.0471 59.1787 23.7234 59.1657C24.4128 59.1657 24.3477 59.2178 24.3477 58.5675C24.3477 54.0152 24.3477 49.463 24.3477 44.9238C24.3477 44.2345 24.4258 44.2865 23.6974 44.2865C20.6409 44.2995 17.5845 44.2995 14.541 44.2995ZM14.554 4.82537C11.5105 4.82537 8.46704 4.82537 5.41055 4.82537C5.26748 4.82537 5.0984 4.79936 4.96834 4.83838C4.86429 4.8774 4.73422 4.99445 4.70821 5.0985C4.65619 5.25458 4.69521 5.42366 4.69521 5.59274C4.69521 10.184 4.69521 14.7752 4.69521 19.3664C4.69521 20.8361 4.69521 20.8231 6.16492 20.7321C6.43805 20.7191 6.51609 20.6671 6.46406 20.3679C6.32099 19.6526 6.42505 18.9762 6.89327 18.391C7.04935 18.1959 6.98432 18.0788 6.86726 17.8967C6.30799 17.0773 6.24296 16.1929 6.71118 15.3215C7.20542 14.411 8.01181 14.0599 9.02631 14.0599C12.7071 14.0729 16.3879 14.0599 20.0687 14.0729C20.3548 14.0729 20.667 14.0989 20.9401 14.1769C22.4618 14.6451 23.1121 16.388 22.2667 17.7667C22.0846 18.0658 22.0977 18.2349 22.2537 18.547C22.4618 18.9632 22.5529 19.4575 22.6439 19.9257C22.6959 20.1728 22.5529 20.576 22.6699 20.6671C22.852 20.7971 23.1902 20.7191 23.4633 20.7321C23.5414 20.7321 23.6324 20.7321 23.7234 20.7321C24.3477 20.7321 24.3477 20.7321 24.3477 20.1208C24.3477 15.2174 24.3477 10.301 24.3477 5.39765C24.3477 4.82537 24.3477 4.82537 23.7625 4.82537C20.68 4.82537 17.6235 4.82537 14.554 4.82537ZM46.3414 40.6838C47.7851 40.6057 49.2938 40.5407 50.7896 40.4497C51.4399 40.4106 51.4529 40.3846 51.4009 39.7603C51.1798 37.2111 50.9457 34.6619 50.7115 32.1126C50.5945 30.89 51.1668 30.0706 52.3373 29.7585C52.7665 29.6544 53.1957 29.5114 53.6119 29.4073C53.9241 29.3293 54.0151 29.1342 53.9111 28.848C53.3648 27.3263 52.8576 25.7655 52.2333 24.2698C51.739 23.0992 50.7636 22.3319 49.684 21.7076C49.3719 21.5255 49.1508 21.5515 48.8256 21.7466C48.2533 22.0978 47.6551 22.4489 47.0308 22.657C45.6781 23.0862 44.3124 23.0472 43.1809 22.0978C42.6346 21.6425 42.2314 21.6035 41.6982 21.9937C41.6331 22.0457 41.5421 22.0717 41.4771 22.1108C40.8397 22.4749 40.8528 22.3059 41.0609 23.1253C41.9063 26.5199 42.2574 29.9536 42.0363 33.4393C41.8933 35.6373 41.8282 37.8354 41.6982 40.0335C41.6722 40.4236 41.7762 40.5407 42.1664 40.5537C43.5451 40.5667 44.9107 40.6317 46.3414 40.6838ZM40.0594 14.4761C39.1749 14.4761 38.2905 14.4761 37.3931 14.4761C37.198 14.4761 37.0289 14.463 37.0159 14.7492C36.9639 15.9848 36.5217 17.0903 35.7933 18.0788C35.6372 18.2869 35.6892 18.404 35.8843 18.534C36.3656 18.8722 36.8598 19.2104 37.328 19.5745C37.6922 19.8607 38.0694 20.0037 38.5506 19.9777C39.1229 19.9387 39.6822 20.0818 40.0464 20.537C40.3585 20.9402 40.6056 20.8882 40.9828 20.6671C41.5681 20.3289 42.1404 19.9517 42.8817 20.1338C42.9858 20.1598 43.1549 20.0558 43.2589 19.9647C44.2214 19.0413 45.1578 18.0788 45.7431 16.8692C46.0163 16.2969 46.1463 15.6336 46.2894 15.0093C46.3674 14.6711 46.2114 14.45 45.7952 14.4891C45.522 14.5151 45.2489 14.5021 44.9758 14.4891C44.7156 14.4761 44.5335 14.5281 44.3514 14.7882C44.0133 15.2955 43.441 15.2824 43.1028 14.7622C42.9468 14.5281 42.7907 14.4761 42.5436 14.4761C41.7112 14.4761 40.8918 14.4761 40.0594 14.4761ZM14.632 42.7258C15.6725 42.7258 16.7 42.7258 17.7405 42.7258C18.625 42.7258 19.5224 42.7388 20.4068 42.7128C20.9271 42.6998 21.2522 42.3616 21.2783 41.8934C21.3043 41.4511 20.9791 41.048 20.4849 40.9699C20.3028 40.9309 20.1077 40.9439 19.9126 40.9439C16.4269 40.9439 12.9282 40.9439 9.44251 40.9439C9.27343 40.9439 9.10435 40.9309 8.93526 40.9569C8.389 41.0219 8.06384 41.3861 8.07685 41.8804C8.08985 42.3876 8.402 42.6997 8.97428 42.7388C9.14336 42.7518 9.31245 42.7388 9.48153 42.7388C11.1984 42.7258 12.9152 42.7258 14.632 42.7258ZM14.567 15.5946C12.7071 15.5946 10.8472 15.5816 8.97428 15.5946C8.32397 15.5946 7.95979 15.9198 7.94678 16.466C7.93378 17.0253 8.32397 17.3765 8.98729 17.4025C9.05232 17.4025 9.11735 17.4025 9.18238 17.4025C12.7591 17.4025 16.3359 17.4025 19.9126 17.4025C20.0817 17.4025 20.2508 17.4155 20.4198 17.3765C20.849 17.2854 21.1612 16.8692 21.1352 16.453C21.1092 16.0238 20.784 15.6726 20.3288 15.6076C20.1467 15.5816 19.9516 15.5946 19.7565 15.5946C18.0267 15.5946 16.2968 15.5946 14.567 15.5946ZM14.528 20.7061C16.4269 20.7061 18.3388 20.7061 20.2377 20.7061C20.758 20.7061 21.1352 20.3289 21.1482 19.8477C21.1482 19.3924 20.81 19.0153 20.3288 18.9372C20.1987 18.9242 20.0817 18.9242 19.9516 18.9242C16.3359 18.9242 12.7071 18.9242 9.09134 18.9242C8.94827 18.9242 8.79219 18.9112 8.64912 18.9502C8.29795 19.0413 8.05083 19.2624 7.95979 19.6266C7.88175 19.9647 7.94678 20.2899 8.23292 20.485C8.45403 20.628 8.74017 20.6931 9.0003 20.7061C10.8472 20.7191 12.6811 20.7061 14.528 20.7061ZM14.632 36.0665C16.4139 36.0665 18.1828 36.0665 19.9646 36.0665C20.1337 36.0665 20.3028 36.0795 20.4719 36.0535C20.9401 35.9755 21.2783 35.5593 21.2522 35.1171C21.2262 34.6879 20.9011 34.3367 20.4458 34.2847C20.2768 34.2587 20.1077 34.2717 19.9386 34.2717C16.4269 34.2717 12.9152 34.2717 9.40349 34.2717C9.2084 34.2717 9.02631 34.2587 8.83121 34.2977C8.33697 34.3627 8.05083 34.7399 8.07685 35.2341C8.10286 35.7674 8.48004 36.0925 9.13036 36.0925C10.9512 36.0795 12.7981 36.0665 14.632 36.0665ZM14.619 39.4092C16.3749 39.4092 18.1307 39.4092 19.8866 39.4092C20.0817 39.4092 20.2638 39.4222 20.4589 39.3961C20.9141 39.3311 21.2392 38.9799 21.2522 38.5507C21.2652 38.1215 20.9531 37.7183 20.5239 37.6403C20.3418 37.6013 20.1467 37.6143 19.9516 37.6143C16.4269 37.6143 12.8892 37.6143 9.36447 37.6143C9.2214 37.6143 9.06533 37.6013 8.92226 37.6273C8.402 37.6793 8.06384 38.0695 8.07685 38.5637C8.08985 39.045 8.41501 39.3701 8.92226 39.4222C9.10434 39.4352 9.29944 39.4352 9.49453 39.4352C11.1984 39.4092 12.9152 39.4092 14.619 39.4092ZM16.648 58.7495C16.544 59.1657 16.557 59.1657 16.8301 59.1787C17.1813 59.1918 17.1162 58.9446 17.1032 58.7495C17.0642 58.2683 16.9862 57.7871 16.9602 57.2928C16.9341 56.8246 17.1422 56.5385 17.5454 56.4474C17.9746 56.3564 18.3518 56.6165 18.4429 57.1238C18.5469 57.683 18.5729 58.2553 18.625 58.8276C18.664 59.1657 18.8461 59.2438 19.3923 59.1787C19.7825 59.1397 19.6265 58.9056 19.5744 58.7235C19.1972 57.4099 18.9891 56.0832 18.9761 54.7176C18.9761 54.3144 18.8201 53.8852 18.625 53.521C18.2478 52.8057 17.4674 52.7796 17.0772 53.495C16.8561 53.9112 16.7391 54.4054 16.713 54.8867C16.661 56.1743 16.674 57.4619 16.648 58.7495ZM12.3039 56.5515C12.3299 56.0182 12.3689 55.576 12.3689 55.1338C12.3689 54.5095 12.3169 53.8982 11.9137 53.3909C11.4975 52.8447 10.8342 52.8447 10.496 53.43C10.2879 53.7941 10.1318 54.2494 10.1058 54.6786C10.0148 56.0182 9.91074 57.3709 9.49453 58.6715C9.46852 58.7756 9.44251 58.8796 9.4295 58.9837C9.4295 59.0357 9.44251 59.1397 9.45552 59.1397C9.70264 59.1657 9.96276 59.2048 10.2099 59.1657C10.3009 59.1527 10.392 58.9316 10.418 58.7886C10.496 58.2423 10.535 57.696 10.6261 57.1628C10.7171 56.6425 11.0813 56.3824 11.4975 56.4604C11.9527 56.5385 12.1868 56.9287 12.1088 57.4749C12.0568 57.8651 11.9917 58.2683 11.9657 58.6715C11.9527 58.8406 12.0048 59.0227 12.0958 59.1657C12.1218 59.2178 12.421 59.2048 12.434 59.1527C12.499 59.0097 12.499 58.8406 12.486 58.6845C12.434 57.9431 12.3559 57.2018 12.3039 56.5515ZM44.4035 21.0703C45.3009 21.4474 46.1463 21.4474 47.0828 20.9922C46.5625 20.563 46.0943 20.1728 45.6131 19.7956C45.2229 20.1728 44.8327 20.55 44.4425 20.9272C44.4425 20.9532 44.4425 20.9792 44.4035 21.0703ZM35.182 19.9387C34.9479 19.7436 34.8438 19.6005 34.7268 19.5875C34.5967 19.5615 34.4406 19.6396 34.3106 19.7046C34.2586 19.7306 34.2325 19.8347 34.1935 19.8997C34.3106 19.9257 34.4276 19.9647 34.5447 19.9647C34.7138 19.9777 34.8698 19.9517 35.182 19.9387Z"/>
</g>
</g>
</svg>
