<svg width="64" height="64" viewBox="0 0 64 64" fill="#24242F" xmlns="http://www.w3.org/2000/svg">
<g id="&#208;&#154;&#209;&#131;&#209;&#133;&#208;&#189;&#209;&#150;">
<g id="Group">
<path id="Vector" d="M59.855 38.3685C59.855 36.1444 59.855 33.9594 59.855 31.7873C59.855 31.3321 59.5689 31.059 59.1397 31.059C58.6975 31.046 58.4244 31.3321 58.3983 31.7743C58.3723 32.2425 58.3853 32.7108 58.3723 33.166C58.3593 33.6602 58.1382 33.9984 57.605 33.9724C57.1107 33.9594 56.9026 33.6342 56.9026 33.166C56.9026 32.6587 56.8896 32.1515 56.9156 31.6442C56.9676 30.5517 57.8131 29.6933 58.8926 29.6023C59.9981 29.4982 60.9736 30.1615 61.2337 31.215C61.3118 31.5142 61.3248 31.8393 61.3378 32.1515C61.3508 33.9984 61.3378 35.8323 61.3378 37.6792C61.3378 37.9003 61.3378 38.1344 61.3378 38.4335C61.819 38.4335 62.2482 38.4205 62.6644 38.4335C63.2887 38.4596 63.5358 38.7067 63.5358 39.344C63.5358 44.4034 63.5358 49.4629 63.5358 54.5223C63.5358 55.0426 63.3537 55.4198 62.7945 55.4068C62.2092 55.3938 62.0791 54.9776 62.0791 54.4833C62.0791 52.3633 62.0791 50.2433 62.0791 48.1362C62.0791 47.8891 62.0791 47.642 62.0791 47.3429C59.5949 47.3429 57.1757 47.3429 54.7176 47.3429C54.7176 51.2448 54.7176 55.1336 54.7176 59.0615C57.1497 59.0615 59.5689 59.0615 62.0791 59.0615C62.0791 58.6323 62.0791 58.1901 62.0791 57.7609C62.0921 57.2667 62.2872 56.9155 62.8205 56.9285C63.3537 56.9415 63.5358 57.2927 63.5358 57.7869C63.5358 59.4127 63.5358 61.0515 63.5358 62.6773C63.5358 63.3016 63.2887 63.5357 62.6384 63.5487C62.4433 63.5487 62.2612 63.5487 62.0661 63.5487C47.291 63.5487 32.5158 63.5487 17.7406 63.5487C17.6105 63.5487 17.4805 63.5487 17.3634 63.5487C16.6091 63.5487 16.2709 63.3146 16.2709 62.8074C16.2839 62.3001 16.5961 62.092 17.3894 62.092C31.9695 62.092 46.5626 62.092 61.1427 62.092C61.4158 62.092 61.6889 62.092 62.0141 62.092C62.0141 61.5978 62.0141 61.1556 62.0141 60.6613C41.8543 60.6613 21.6945 60.6613 1.49573 60.6613C1.49573 61.1165 1.49573 61.5588 1.49573 62.092C1.75585 62.092 2.00297 62.092 2.25009 62.092C5.51468 62.092 8.76625 62.092 12.0308 62.092C12.265 62.092 12.5511 62.04 12.7202 62.144C12.9543 62.3001 13.2664 62.5863 13.2404 62.8074C13.2144 63.0675 12.9283 63.3406 12.6942 63.5227C12.5771 63.6138 12.33 63.5617 12.1349 63.5617C8.46711 63.5617 4.81234 63.5617 1.14456 63.5617C0.169082 63.5617 0 63.4057 0 62.4172C0 54.7955 0 47.1738 0 39.5521C0 38.6416 0.208101 38.4335 1.11854 38.4205C2.34114 38.4205 3.57674 38.4205 4.79933 38.4205C4.99442 38.4205 5.20252 38.4075 5.52768 38.3815C4.13601 36.8078 4.46116 34.9869 4.44816 33.231C4.44816 32.7368 4.78632 32.5287 5.25455 32.5287C5.93088 32.5287 6.60721 32.5677 7.28354 32.5157C7.58268 32.4897 7.93385 32.3596 8.15496 32.1645C8.70122 31.6963 9.18246 31.163 9.6897 30.6558C10.0279 30.3046 10.4311 30.1875 10.8082 30.5387C11.2244 30.9289 11.1074 31.3451 10.7302 31.6963C10.4831 31.9304 10.21 32.1255 9.94983 32.3336C9.98885 32.3986 10.0149 32.4766 10.0539 32.5417C10.7822 32.5417 11.4976 32.5417 12.2259 32.5417C13.0713 32.5417 13.2794 32.7368 13.2925 33.5822C13.2925 34.2845 13.3835 34.9999 13.2534 35.6762C13.0844 36.5866 12.7462 37.4711 12.4861 38.3685C15.1914 38.3685 18.0658 38.3685 20.8881 38.3685C20.7971 37.4321 20.706 36.4826 20.615 35.5071C20.0687 35.4161 19.2363 35.6632 19.2363 34.7397C19.2363 33.8293 20.0948 34.0764 20.628 33.9464C20.8751 32.5287 20.8751 32.5287 22.3318 32.5287C24.2568 32.5287 26.1817 32.5287 28.1066 32.5287C29.4593 32.5287 29.4723 32.5287 29.5894 33.9203C30.1096 34.1154 31.0721 33.7773 30.994 34.8178C30.929 35.6372 30.1746 35.4291 29.6414 35.4811C29.5373 36.4436 29.4463 37.38 29.3422 38.3555C30.838 38.3555 32.4247 38.3555 33.9725 38.3555C33.9725 37.4581 33.9595 36.5736 33.9725 35.6892C33.9855 34.9739 34.2326 34.7267 34.935 34.7137C38.2386 34.7007 41.5422 34.7007 44.8458 34.7137C45.4701 34.7137 45.8342 35.0259 45.7822 35.4941C45.7302 36.0534 45.353 36.2095 44.8458 36.2095C44.2085 36.1965 43.5841 36.2095 42.8688 36.2095C42.8688 36.9248 42.8688 37.6141 42.8688 38.3555C48.4615 38.3685 54.1193 38.3685 59.855 38.3685ZM44.2995 59.0876C44.2995 52.6624 44.2995 46.3024 44.2995 39.9423C35.9234 39.9423 27.5864 39.9423 19.2493 39.9423C19.2493 46.3414 19.2493 52.7015 19.2493 59.0615C20.2378 59.0615 21.1743 59.0615 22.1628 59.0615C22.1628 58.7624 22.1628 58.5153 22.1628 58.2682C22.1628 54.5614 22.1628 50.8546 22.1628 47.1608C22.1628 45.9512 22.2928 45.8341 23.5154 45.8341C28.887 45.8341 34.2716 45.8341 39.6432 45.8341C39.8513 45.8341 40.0724 45.8341 40.2805 45.8341C41.191 45.8471 41.3861 46.0422 41.3861 46.9657C41.3861 48.4224 41.3861 49.8921 41.3861 51.3488C41.3861 52.0902 41.139 52.4673 40.6577 52.4804C40.1635 52.4934 39.9034 52.1292 39.9034 51.3878C39.9034 50.2173 39.9034 49.0597 39.9034 47.8891C39.9034 47.707 39.8773 47.525 39.8643 47.3299C34.4537 47.3299 29.0821 47.3299 23.6975 47.3299C23.6975 50.2823 23.6975 53.2087 23.6975 56.1481C29.1081 56.1481 34.4797 56.1481 39.9164 56.1481C39.9164 55.6799 39.9164 55.2377 39.9164 54.8085C39.9164 54.3403 40.1245 54.0151 40.6187 53.9891C41.152 53.9631 41.3861 54.3012 41.3991 54.7825C41.4251 55.2637 41.4121 55.7579 41.4121 56.2392C41.4121 57.1886 41.4121 58.1251 41.4121 59.0876C42.4266 59.0876 43.35 59.0876 44.2995 59.0876ZM17.7016 50.3083C12.291 50.3083 6.90635 50.3083 1.50873 50.3083C1.50873 53.2607 1.50873 56.1481 1.50873 59.0615C6.93236 59.0615 12.304 59.0615 17.7016 59.0615C17.7016 56.1221 17.7016 53.2347 17.7016 50.3083ZM17.6886 48.7606C17.6886 45.7821 17.6886 42.8687 17.6886 39.9553C12.278 39.9553 6.90635 39.9553 1.53474 39.9553C1.53474 42.9207 1.53474 45.8341 1.53474 48.7606C6.94537 48.7606 12.304 48.7606 17.6886 48.7606ZM62.0531 39.9423C56.6425 39.9423 51.2709 39.9423 45.8863 39.9423C45.8863 41.9062 45.8863 43.8312 45.8863 45.7821C51.2969 45.7821 56.6555 45.7821 62.0531 45.7821C62.0531 43.8312 62.0531 41.9192 62.0531 39.9423ZM45.8733 47.3299C45.8733 51.2578 45.8733 55.1597 45.8733 59.0746C48.3315 59.0746 50.7506 59.0746 53.1698 59.0746C53.1698 55.1336 53.1698 51.2317 53.1698 47.3299C50.7116 47.3299 48.3184 47.3299 45.8733 47.3299ZM28.0936 34.0504C26.0907 34.0504 24.1657 34.0504 22.1888 34.0504C22.1888 35.0909 22.1497 36.0794 22.2018 37.0679C22.2538 37.9003 22.8391 38.4075 23.6715 38.4205C24.66 38.4465 25.6615 38.4465 26.6499 38.4205C27.4693 38.3945 28.0546 37.8483 28.0806 37.0289C28.1196 36.0404 28.0936 35.0779 28.0936 34.0504ZM5.87885 34.0374C5.91787 34.7528 5.89186 35.3901 5.9829 36.0014C6.191 37.354 7.33556 38.3425 8.70122 38.4075C10.1189 38.4726 11.3935 37.6141 11.6927 36.2745C11.8487 35.5722 11.8227 34.8178 11.8878 34.0374C9.85878 34.0374 7.92084 34.0374 5.87885 34.0374ZM23.6715 59.0615C29.1081 59.0615 34.4927 59.0615 39.8773 59.0615C39.8773 58.5803 39.8773 58.1381 39.8773 57.7089C34.4537 57.7089 29.0691 57.7089 23.6715 57.7089C23.6715 58.1771 23.6715 58.6063 23.6715 59.0615ZM35.4812 36.2485C35.4812 36.7557 35.4682 37.1979 35.4812 37.6402C35.5072 38.1474 35.7804 38.4205 36.2876 38.4205C37.7183 38.4205 39.162 38.4205 40.5927 38.4205C41.0479 38.4205 41.3341 38.1864 41.3731 37.7572C41.4121 37.263 41.3861 36.7687 41.3861 36.2485C39.3831 36.2485 37.4712 36.2485 35.4812 36.2485Z" fill="#24242F"/>
<path id="Vector_2" d="M31.7874 25.8694C28.0026 25.8694 24.2177 25.8694 20.4329 25.8694C19.3924 25.8694 19.2363 25.7003 19.2233 24.6468C19.2233 24.2046 19.2753 23.7494 19.2103 23.3202C19.0672 22.2667 19.4704 21.5513 20.2898 20.875C22.0457 19.4183 23.7105 17.8445 25.4403 16.3488C25.7785 16.0497 25.8955 15.7505 25.8825 15.3083C25.8695 10.639 25.8695 5.95676 25.8695 1.28749C25.8695 0.155942 26.0126 0.0258789 27.1571 0.0258789C30.2917 0.0258789 33.4132 0.0258789 36.5477 0.0258789C37.5232 0.0258789 37.7053 0.207967 37.7053 1.17043C37.7053 5.8397 37.7183 10.522 37.6923 15.1912C37.6923 15.7505 37.8743 16.1147 38.2905 16.4789C40.1374 18.0916 41.9583 19.7434 43.8052 21.3562C44.2084 21.7074 44.3905 22.0846 44.3645 22.6178C44.3255 23.3332 44.3645 24.0615 44.3515 24.7769C44.3515 25.6483 44.1434 25.8694 43.272 25.8694C39.4351 25.8694 35.6112 25.8694 31.7874 25.8694ZM27.3392 1.5216C27.3392 1.79474 27.3392 2.02885 27.3392 2.24996C27.3392 6.80217 27.3392 11.3544 27.3522 15.8936C27.3522 16.3748 27.2092 16.739 26.845 17.0511C25.9736 17.7925 25.1282 18.5599 24.2697 19.3142C23.5284 19.9776 22.8 20.6279 21.9546 21.3822C22.2928 21.3952 22.5009 21.4213 22.696 21.4213C23.9186 21.4213 25.1542 21.4213 26.3768 21.4213C27.0141 21.4213 27.3652 21.7074 27.3262 22.1886C27.2742 22.7479 26.897 22.891 26.3898 22.891C24.9461 22.878 23.5154 22.891 22.0717 22.891C21.6295 22.891 21.2003 22.891 20.745 22.891C20.745 23.4242 20.745 23.8794 20.745 24.3477C28.1196 24.3477 35.4552 24.3477 42.8037 24.3477C42.8037 23.8534 42.8037 23.3982 42.8037 22.891C42.5306 22.891 42.3095 22.891 42.0754 22.891C38.3035 22.891 34.5447 22.891 30.7729 22.891C30.5648 22.891 30.2917 22.956 30.1486 22.852C29.9145 22.6699 29.6283 22.3837 29.6023 22.1236C29.5893 21.9155 29.9015 21.6164 30.1356 21.4733C30.3047 21.3692 30.5908 21.4213 30.8249 21.4213C34.1415 21.4213 37.4711 21.4213 40.7878 21.4213C41.0089 21.4213 41.23 21.4213 41.4511 21.4213C41.4901 21.3562 41.5161 21.2912 41.5551 21.2262C41.4251 21.1481 41.295 21.0961 41.1779 20.9921C39.7082 19.6914 38.2515 18.3648 36.7558 17.0772C36.3526 16.726 36.1965 16.3488 36.1965 15.8155C36.2095 11.2893 36.2095 6.76315 36.2095 2.22395C36.2095 1.98983 36.2095 1.76872 36.2095 1.49559C33.2441 1.5216 30.3177 1.5216 27.3392 1.5216Z" fill="#24242F"/>
<path id="Vector_3" d="M11.0813 0.0130063C14.3979 0.0130063 17.7275 0.0130063 21.0441 0.0130063C21.9936 0.0130063 22.1627 0.182088 22.1627 1.10554C22.1627 6.29505 22.1627 11.4716 22.1627 16.6611C22.1627 17.5585 21.9806 17.7276 21.0702 17.7276C14.4239 17.7276 7.77771 17.7276 1.13148 17.7276C0.182021 17.7276 0.0129395 17.5455 0.0129395 16.6221C0.0129395 11.4325 0.0129395 6.25604 0.0129395 1.06652C0.0129395 0.182088 0.195028 0 1.10547 0C4.43508 0.0130063 7.75169 0.0130063 11.0813 0.0130063ZM20.667 16.2449C20.667 11.3025 20.667 6.42512 20.667 1.50873C17.7145 1.50873 14.8011 1.50873 11.8877 1.50873C11.8877 6.43812 11.8877 11.3285 11.8877 16.2449C14.8271 16.2449 17.7145 16.2449 20.667 16.2449ZM10.3009 16.2449C10.3009 11.3285 10.3009 6.45113 10.3009 1.54775C7.3615 1.54775 4.43509 1.54775 1.53468 1.54775C1.53468 6.49015 1.53468 11.3675 1.53468 16.2449C4.48711 16.2449 7.37451 16.2449 10.3009 16.2449Z" fill="#24242F"/>
<path id="Vector_4" d="M52.4544 0.0130063C55.771 0.0130063 59.1006 0.0130063 62.4172 0.0130063C63.3667 0.0130063 63.5357 0.182088 63.5357 1.10554C63.5357 6.29505 63.5357 11.4716 63.5357 16.6611C63.5357 17.5455 63.3536 17.7276 62.4432 17.7276C55.771 17.7276 49.1117 17.7276 42.4395 17.7276C41.5681 17.7276 41.386 17.5325 41.386 16.6871C41.386 11.4586 41.386 6.23002 41.386 1.00149C41.386 0.195095 41.5941 0 42.4135 0C45.7691 0.0130063 49.1117 0.0130063 52.4544 0.0130063ZM51.7 16.2449C51.7 11.3285 51.7 6.45113 51.7 1.53474C48.7606 1.53474 45.8341 1.53474 42.8947 1.53474C42.8947 6.46414 42.8947 11.3415 42.8947 16.2449C45.8341 16.2449 48.7346 16.2449 51.7 16.2449ZM62.027 16.2449C62.027 11.3155 62.027 6.42512 62.027 1.52174C59.0746 1.52174 56.1872 1.52174 53.2738 1.52174C53.2738 6.45113 53.2738 11.3415 53.2738 16.2449C56.2262 16.2449 59.1136 16.2449 62.027 16.2449Z" fill="#24242F"/>
<path id="Vector_5" d="M55.4329 53.2479C55.4329 52.9748 55.3419 52.6496 55.4589 52.4415C55.602 52.1684 55.9141 51.8042 56.1613 51.8042C56.4084 51.8042 56.8246 52.1554 56.8766 52.4155C56.9937 52.9357 56.9937 53.521 56.8766 54.0543C56.8246 54.3014 56.4084 54.6526 56.1613 54.6526C55.9141 54.6526 55.615 54.2884 55.4589 54.0153C55.3419 53.7942 55.4329 53.495 55.4329 53.2479Z" fill="#24242F"/>
<path id="Vector_6" d="M31.7482 50.2563C30.3305 50.2563 28.9128 50.2693 27.4952 50.2563C26.8058 50.2433 26.4026 49.762 26.6888 49.2678C26.8188 49.0467 27.17 48.8256 27.4301 48.8256C30.3305 48.7996 33.2179 48.8126 36.1183 48.7996C36.5996 48.7996 36.9117 49.0207 36.9377 49.5019C36.9637 50.0091 36.6256 50.2693 36.1313 50.2693C34.6746 50.2563 33.2179 50.2563 31.7482 50.2563Z" fill="#24242F"/>
<path id="Vector_7" d="M25.8825 40.6708C27.1051 40.6708 28.1066 41.6853 28.0936 42.8949C28.0806 44.1044 27.0401 45.1189 25.8305 45.0929C24.6469 45.0669 23.6584 44.0654 23.6584 42.8819C23.6584 41.6463 24.6469 40.6578 25.8825 40.6708ZM26.0906 42.1145C25.4403 42.1925 25.1542 42.3876 25.1542 42.8558C25.1542 43.3111 25.4143 43.5842 25.8565 43.5842C26.2987 43.5842 26.6239 43.3111 26.5589 42.8819C26.5198 42.5827 26.2207 42.3226 26.0906 42.1145Z" fill="#24242F"/>
<path id="Vector_8" d="M37.6793 40.6707C38.9149 40.6707 39.9034 41.6591 39.9034 42.8817C39.9034 44.0913 38.8759 45.1058 37.6663 45.0928C36.4828 45.0798 35.4813 44.0783 35.4683 42.8947C35.4683 41.6721 36.4567 40.6707 37.6793 40.6707ZM36.964 43.0898C37.1461 43.2199 37.4062 43.519 37.7053 43.5711C38.1346 43.6361 38.4077 43.3109 38.4077 42.8687C38.4077 42.4005 38.1215 42.1534 37.6923 42.1534C37.2371 42.1534 36.99 42.4135 36.964 43.0898Z" fill="#24242F"/>
<path id="Vector_9" d="M31.7874 40.6708C33.036 40.6708 33.9855 41.6463 33.9855 42.8949C33.9725 44.1175 32.958 45.1189 31.7484 45.0929C30.5518 45.0669 29.5894 44.0784 29.5894 42.8819C29.5894 41.6333 30.5518 40.6578 31.7874 40.6708ZM31.6704 43.7013C31.7614 43.7013 31.8655 43.6882 31.9565 43.6882C32.1386 43.4021 32.4507 43.142 32.4898 42.8428C32.5418 42.3876 32.1906 42.1145 31.7224 42.1405C31.2802 42.1665 30.981 42.4787 31.0721 42.8949C31.1501 43.207 31.4623 43.4411 31.6704 43.7013Z" />
<path id="Vector_10" d="M9.61162 55.4198C9.13038 55.4198 8.63614 55.4328 8.15491 55.4198C7.7127 55.4067 7.42656 55.1596 7.41355 54.7174C7.40055 54.2752 7.66067 53.9891 8.10289 53.9761C9.11738 53.95 10.1319 53.95 11.1334 53.9761C11.5756 53.9891 11.8357 54.2882 11.8097 54.7304C11.7837 55.1596 11.4975 55.4067 11.0553 55.4198C10.5741 55.4328 10.0929 55.4198 9.61162 55.4198Z" fill="#24242F"/>
<path id="Vector_11" d="M9.61153 43.5971C10.0798 43.5971 10.535 43.5841 11.0032 43.5971C11.4714 43.6101 11.7966 43.8312 11.8096 44.3124C11.8226 44.8197 11.4844 45.0798 11.0032 45.0928C10.0798 45.1058 9.1433 45.1058 8.21986 45.0928C7.73862 45.0798 7.38745 44.8327 7.41347 44.3124C7.42647 43.8312 7.76464 43.6101 8.21986 43.6101C8.68808 43.5971 9.15631 43.5971 9.61153 43.5971Z" fill="#24242F"/>
<path id="Vector_12" d="M53.9371 43.5972C53.69 43.5972 53.3779 43.6883 53.1828 43.5712C52.9096 43.4152 52.5845 43.168 52.5064 42.8819C52.4024 42.4917 52.7015 42.1796 53.1047 42.1535C53.677 42.1145 54.2493 42.0755 54.8085 42.1796C55.0427 42.2186 55.3938 42.6478 55.3678 42.8559C55.3418 43.116 55.0166 43.4152 54.7435 43.5582C54.5354 43.6883 54.2103 43.5972 53.9371 43.5972Z" fill="#24242F"/>
<path id="Vector_13" d="M52.4673 53.2478C52.4673 53.4949 52.5583 53.8071 52.4413 54.0022C52.2852 54.2753 51.9861 54.6265 51.7389 54.6395C51.4918 54.6395 51.0886 54.3013 51.0236 54.0412C50.9065 53.5339 50.9586 52.9877 50.9976 52.4674C51.0236 52.0382 51.2967 51.7521 51.7389 51.7651C52.1811 51.7781 52.4283 52.0642 52.4543 52.4934C52.4933 52.7405 52.4803 52.9877 52.4673 53.2478C52.4803 53.2478 52.4803 53.2478 52.4673 53.2478Z" fill="#24242F"/>
<path id="Vector_14" d="M12.5901 8.88333C12.5901 8.6102 12.4991 8.28504 12.6161 8.07694C12.7592 7.80381 13.0714 7.45264 13.3185 7.45264C13.5526 7.45264 13.9428 7.81681 13.9948 8.07694C14.0989 8.59719 14.0468 9.16947 14.0078 9.71574C13.9818 10.1319 13.6697 10.4051 13.2795 10.314C13.0193 10.249 12.7462 9.96285 12.6161 9.70273C12.5121 9.48162 12.5901 9.15646 12.5901 8.88333Z" fill="#24242F"/>
<path id="Vector_15" d="M8.15483 8.85738C8.15483 8.61026 8.06378 8.31112 8.18084 8.10302C8.32391 7.82989 8.61005 7.4527 8.84416 7.4397C9.07827 7.4397 9.50748 7.79087 9.5465 8.03799C9.65055 8.58425 9.65055 9.18254 9.5465 9.72881C9.50748 9.96292 9.1303 10.2491 8.87017 10.3011C8.47998 10.3921 8.20685 10.093 8.15483 9.68979C8.12881 9.41666 8.15483 9.14352 8.15483 8.85738Z" fill="#24242F"/>
<path id="Vector_16" d="M50.9717 8.88333C50.9717 9.15646 50.9977 9.4296 50.9717 9.70273C50.9196 10.1189 50.6335 10.4051 50.2433 10.301C49.9832 10.236 49.632 9.94985 49.58 9.70273C49.4759 9.16947 49.4759 8.59719 49.58 8.07694C49.632 7.81681 50.0222 7.45264 50.2563 7.45264C50.4904 7.45264 50.8026 7.80381 50.9587 8.07694C51.0627 8.28504 50.9717 8.6102 50.9717 8.88333Z" fill="#24242F"/>
<path id="Vector_17" d="M55.4198 8.92229C55.4198 9.15641 55.4328 9.39052 55.4198 9.62463C55.3807 10.0668 55.1466 10.327 54.6914 10.327C54.2362 10.327 53.9891 10.0538 53.9761 9.61163C53.95 9.13039 53.95 8.63615 53.9761 8.15492C53.9891 7.68669 54.2492 7.38755 54.7304 7.40055C55.1726 7.41356 55.4067 7.6997 55.4198 8.15492C55.4198 8.41505 55.4198 8.66217 55.4198 8.92229Z" fill="#24242F"/>
</g>
</g>
</svg>
