<svg width="63" height="57" viewBox="0 0 63 57" fill="#24242F" xmlns="http://www.w3.org/2000/svg">
<g id="&#208;&#148;&#208;&#184;&#209;&#130;&#209;&#143;&#209;&#135;&#209;&#150;">
<g id="Group">
<path id="Vector" d="M0 1.13656C0.377183 0.304159 1.01449 -0.0470113 1.93794 0.00501394C2.86139 0.0570392 3.79784 0.00501393 4.7343 0.0180202C5.7748 0.0310265 6.34708 0.590298 6.37309 1.6308C6.39911 2.33314 6.37309 3.03548 6.37309 3.6858C10.0669 3.6858 13.6826 3.65979 17.2984 3.69881C18.7811 3.71181 19.8606 4.94741 19.8867 6.52118C19.8997 7.65273 19.8867 8.78427 19.8867 9.95484C31.8525 9.95484 43.7792 9.95484 55.7971 9.95484C55.7971 9.70772 55.7971 9.47361 55.7971 9.23949C55.7971 6.80731 55.7971 4.38814 55.7971 1.95596C55.7971 0.525267 56.3043 0.0180202 57.735 0.0180202C58.6845 0.0180202 59.6339 0.00501393 60.5834 0.0180202C61.5719 0.0310265 62.1702 0.629317 62.1702 1.6178C62.1702 9.88981 62.1702 18.1748 62.1702 26.4468C62.1702 27.1102 61.819 27.5004 61.2597 27.5004C60.6874 27.5004 60.3493 27.1102 60.3493 26.3818C60.3493 18.474 60.3493 10.5531 60.3493 2.6453C60.3493 2.39818 60.3493 2.16406 60.3493 1.87792C59.4388 1.87792 58.5674 1.87792 57.644 1.87792C57.644 19.5015 57.644 37.112 57.644 54.7746C58.5414 54.7746 59.4128 54.7746 60.3493 54.7746C60.3493 54.5145 60.3493 54.2803 60.3493 54.0332C60.3493 46.3855 60.3493 38.7378 60.3493 31.0901C60.3493 30.908 60.3363 30.7259 60.3493 30.5438C60.4013 30.0236 60.7785 29.6594 61.2597 29.6724C61.741 29.6724 62.1051 30.0366 62.1572 30.5568C62.1702 30.7129 62.1572 30.882 62.1572 31.0381C62.1572 38.9069 62.1572 46.7757 62.1572 54.6575C62.1572 56.1272 61.6629 56.6345 60.2062 56.6345C59.3218 56.6345 58.4244 56.6345 57.5399 56.6345C56.3563 56.6215 55.7971 56.0752 55.7841 54.8786C55.7711 52.3944 55.7841 49.8972 55.7841 47.413C55.7841 47.1919 55.7841 46.9708 55.7841 46.6977C39.3051 46.6977 22.8781 46.6977 6.37309 46.6977C6.37309 46.9448 6.37309 47.1919 6.37309 47.426C6.37309 49.8322 6.37309 52.2384 6.37309 54.6445C6.37309 56.1272 5.87885 56.6215 4.42215 56.6215C3.58974 56.6215 2.75734 56.5825 1.93794 56.6345C1.01449 56.6865 0.377183 56.3354 0 55.5029C0 42.9909 0 30.4918 0 17.9797C0.299145 17.5635 0.637309 17.2254 1.20959 17.4335C1.76886 17.6416 1.8599 18.1098 1.82088 18.6301C1.80788 18.7731 1.82088 18.9162 1.82088 19.0593C1.82088 30.7129 1.82088 42.3666 1.82088 54.0332C1.82088 54.2673 1.82088 54.5145 1.82088 54.8136C2.31512 54.8136 2.75734 54.8136 3.19955 54.8136C3.64177 54.8136 4.07098 54.8136 4.5262 54.8136C4.5262 37.112 4.5262 19.4885 4.5262 1.87792C3.61575 1.87792 2.73133 1.87792 1.83389 1.87792C1.83389 2.15106 1.83389 2.37216 1.83389 2.59327C1.83389 6.40412 1.83389 10.202 1.83389 14.0128C1.83389 14.5331 1.75585 15.0143 1.19658 15.1964C0.637309 15.3785 0.273133 15.0663 0 14.6111C0 10.1239 0 5.63675 0 1.13656ZM34.987 35.8504C34.7399 35.8504 34.5188 35.8504 34.2976 35.8504C32.958 35.8504 31.6314 35.8504 30.2917 35.8504C29.5243 35.8504 29.1211 35.5122 29.1341 34.914C29.1471 34.3417 29.5373 34.0295 30.2657 34.0295C31.6444 34.0295 33.023 34.0035 34.3887 34.0425C34.8959 34.0555 35.039 33.8865 35.026 33.3922C35 30.0366 35.013 26.668 35.013 23.3123C35.013 23.1172 35 22.9221 34.987 22.688C25.4403 22.688 15.9327 22.688 6.41211 22.688C6.41211 24.4049 6.41211 26.0957 6.41211 27.7735C6.73727 27.7475 7.02341 27.7085 7.30955 27.7085C10.5611 27.7085 13.8257 27.7085 17.0773 27.7085C17.3374 27.7085 17.6105 27.7345 17.8577 27.7995C19.1063 28.1377 19.8476 29.1782 19.8736 30.5698C19.8867 31.7014 19.8736 32.8199 19.8736 34.0165C20.8361 34.0165 21.7205 34.0165 22.605 34.0165C23.7625 34.0165 24.9071 34.0035 26.0646 34.0295C26.5849 34.0425 26.884 34.3287 26.9491 34.8489C27.0011 35.3432 26.6759 35.7333 26.1557 35.8244C25.9606 35.8504 25.7525 35.8374 25.5444 35.8374C19.4184 35.8374 13.2794 35.8374 7.15347 35.8374C6.91936 35.8374 6.68524 35.8374 6.41211 35.8374C6.41211 38.8679 6.41211 41.8333 6.41211 44.7988C15.9587 44.7988 25.4794 44.7988 34.987 44.7988C34.987 41.8073 34.987 38.8679 34.987 35.8504ZM34.987 11.8538C25.4534 11.8538 15.9457 11.8538 6.41211 11.8538C6.41211 14.8452 6.41211 17.8107 6.41211 20.8021C15.9457 20.8021 25.4534 20.8021 34.987 20.8021C34.987 17.8237 34.987 14.8712 34.987 11.8538ZM50.0223 22.688C50.0223 26.4729 50.0223 30.2187 50.0223 33.9775C51.9602 33.9775 53.8461 33.9775 55.732 33.9775C55.732 30.1927 55.732 26.4468 55.732 22.688C53.8071 22.688 51.9342 22.688 50.0223 22.688ZM48.1103 31.1161C48.1103 29.2302 48.1103 27.4093 48.1103 25.5754C44.3515 25.5754 40.6317 25.5754 36.8859 25.5754C36.8859 27.4353 36.8859 29.2562 36.8859 31.1161C40.6317 31.1161 44.3515 31.1161 48.1103 31.1161ZM18.0528 34.0035C18.0528 32.7679 18.0788 31.5973 18.0398 30.4268C18.0267 29.8155 17.6496 29.5423 16.9732 29.5423C13.7997 29.5423 10.6262 29.5423 7.45262 29.5423C6.69825 29.5423 6.3861 29.8415 6.37309 30.6089C6.36009 31.5323 6.39911 32.4688 6.36009 33.3922C6.33407 33.8995 6.49015 34.0425 6.9974 34.0425C10.4701 34.0165 13.9558 34.0295 17.4285 34.0295C17.6105 34.0295 17.7926 34.0165 18.0528 34.0035ZM18.0528 9.98085C18.0528 8.74526 18.0788 7.56168 18.0398 6.3651C18.0137 5.83184 17.6626 5.5327 17.1163 5.51969C16.6481 5.50668 16.1799 5.51969 15.7246 5.51969C12.9933 5.51969 10.262 5.51969 7.53065 5.51969C6.95838 5.51969 6.45113 5.66276 6.42512 6.28706C6.36009 7.50966 6.41211 8.73225 6.41211 9.99386C10.288 9.98085 14.1249 9.98085 18.0528 9.98085ZM55.732 20.8021C55.732 17.7716 55.732 14.8192 55.732 11.8668C53.7941 11.8668 51.8952 11.8668 50.0223 11.8668C50.0223 14.8712 50.0223 17.8367 50.0223 20.8021C51.9472 20.8021 53.8201 20.8021 55.732 20.8021ZM50.0093 44.8118C51.9472 44.8118 53.8461 44.8118 55.745 44.8118C55.745 41.8203 55.745 38.8679 55.745 35.8894C53.8201 35.8894 51.9342 35.8894 50.0093 35.8894C50.0093 38.8679 50.0093 41.8333 50.0093 44.8118ZM36.8729 16.2239C40.6447 16.2239 44.3645 16.2239 48.1103 16.2239C48.1103 14.7412 48.1103 13.2975 48.1103 11.8668C44.3385 11.8668 40.6057 11.8668 36.8729 11.8668C36.8729 13.3365 36.8729 14.7542 36.8729 16.2239ZM36.8859 40.4416C36.8859 41.9374 36.8859 43.355 36.8859 44.8118C40.6447 44.8118 44.3775 44.8118 48.1103 44.8118C48.1103 43.329 48.1103 41.8983 48.1103 40.4416C44.3515 40.4416 40.6577 40.4416 36.8859 40.4416ZM48.1103 18.1488C44.3385 18.1488 40.6057 18.1488 36.8859 18.1488C36.8859 19.0593 36.8859 19.9177 36.8859 20.8151C40.6447 20.8151 44.3515 20.8151 48.1103 20.8151C48.1103 19.9177 48.1103 19.0593 48.1103 18.1488ZM48.1103 35.9024C44.3385 35.9024 40.6187 35.9024 36.8859 35.9024C36.8859 36.8129 36.8859 37.6713 36.8859 38.5687C40.6447 38.5687 44.3515 38.5687 48.1103 38.5687C48.1103 37.6713 48.1103 36.8129 48.1103 35.9024ZM36.8859 23.6765C40.6577 23.6765 44.3775 23.6765 48.0973 23.6765C48.0973 23.3253 48.0973 23.0132 48.0973 22.701C44.3385 22.701 40.6317 22.701 36.8859 22.701C36.8859 23.0262 36.8859 23.3253 36.8859 23.6765ZM48.1234 33.015C44.3515 33.015 40.6187 33.015 36.8859 33.015C36.8859 33.3662 36.8859 33.6523 36.8859 33.9905C40.6447 33.9905 44.3645 33.9905 48.1234 33.9905C48.1234 33.6523 48.1234 33.3532 48.1234 33.015Z" />
</g>
</g>
</svg>
