<svg width="66" height="64" viewBox="0 0 66 64" fill="#24242F" xmlns="http://www.w3.org/2000/svg">
<path d="M0 43.3964C8.05091 34.7082 16.1018 26.007 24.1527 17.3187C29.3292 11.726 34.5057 6.13332 39.6823 0.540603C39.7733 0.449559 39.8513 0.345508 39.9424 0.26747C40.3066 -0.0576873 40.7228 -0.109713 41.0739 0.241458C41.4251 0.579622 41.4251 1.00883 41.0999 1.38601C40.5277 2.03633 39.9424 2.68664 39.3311 3.29794C38.9669 3.66212 38.8238 4.0393 38.8238 4.57256C38.8498 9.35888 38.8368 14.1452 38.8368 18.9185C38.8368 19.1656 38.8368 19.4258 38.8368 19.7249C39.5002 19.7249 40.1505 19.7249 40.8788 19.7249C40.8788 18.6064 40.8788 17.5008 40.8788 16.3823C40.8788 14.8345 41.5812 14.1452 43.1289 14.1322C43.7532 14.1322 44.3905 14.1322 45.0669 14.1322C45.0669 9.82711 45.0669 5.60006 45.0669 1.28196C45.392 1.28196 45.6522 1.28196 45.9253 1.28196C52.0252 1.28196 58.1122 1.28196 64.2122 1.28196C64.4853 1.28196 64.7584 1.24294 65.0316 1.22994C65.0316 2.92076 65.0316 4.61158 65.0316 6.31541C64.6023 7.43395 63.7699 7.87616 62.5994 7.81113C62.0141 7.77211 61.4288 7.81113 60.7525 7.81113C60.7525 8.59151 60.7525 9.30686 60.7525 10.0222C60.7395 11.3879 59.9981 12.1422 58.6325 12.1552C58.4113 12.1552 58.1902 12.1552 57.9301 12.1552C57.9301 12.9616 57.9301 13.677 57.9301 14.3923C57.9171 15.771 57.1887 16.4993 55.8101 16.5124C54.8866 16.5124 53.9632 16.5124 52.9487 16.5124C52.9487 32.263 52.9487 47.9486 52.9487 63.6602C36.4437 63.6602 20.0297 63.6602 3.5117 63.6602C3.5117 56.4808 3.5117 49.3403 3.5117 42.0307C2.80936 42.7851 2.23709 43.4094 1.6518 44.0207C0.98848 44.736 0.637309 44.736 0 44.0467C0 43.8256 0 43.6175 0 43.3964ZM37.172 25.3697C37.172 18.7755 37.172 12.2723 37.172 5.76914C37.12 5.74313 37.068 5.70411 37.016 5.66509C36.9119 5.82117 36.8339 6.00325 36.7168 6.13332C31.4753 11.8041 26.2207 17.4748 20.9922 23.1586C20.7841 23.3927 20.654 23.7829 20.654 24.108C20.628 28.4001 20.641 32.7052 20.641 36.9973C20.641 37.2184 20.667 37.4395 20.68 37.6476C22.4099 37.6476 24.0747 37.6476 25.7785 37.6476C25.7785 36.295 25.7655 34.9813 25.7785 33.6807C25.7915 32.4841 26.5069 31.7427 27.7034 31.7037C28.3798 31.6777 29.0561 31.6907 29.7324 31.6907C30.3827 31.6907 31.0331 31.6907 31.7224 31.6907C31.7224 30.5722 31.7744 29.5577 31.7094 28.5432C31.5533 25.8509 32.3987 25.2526 34.8439 25.3827C35.5983 25.4087 36.3656 25.3697 37.172 25.3697ZM46.7447 2.94677C46.7447 22.6513 46.7447 42.3169 46.7447 62.0084C48.2794 62.0084 49.7882 62.0084 51.2579 62.0084C51.2579 42.2909 51.2579 22.6123 51.2579 2.94677C49.7361 2.94677 48.2534 2.94677 46.7447 2.94677ZM18.9632 43.7996C18.9632 37.6346 18.9632 31.5477 18.9632 25.4607C18.9112 25.4347 18.8722 25.3957 18.8201 25.3697C18.7161 25.5257 18.625 25.6948 18.495 25.8249C14.333 30.3251 10.1839 34.8382 5.99591 39.3254C5.38461 39.9757 5.09847 40.574 5.12449 41.5105C5.20252 45.9326 5.16351 50.3548 5.16351 54.7769C5.16351 55.024 5.16351 55.2712 5.16351 55.5573C6.41211 55.5573 7.58268 55.5573 8.81828 55.5573C8.81828 54.2046 8.81828 52.904 8.81828 51.5904C8.83129 50.1597 9.58565 49.4183 11.0294 49.4053C11.9788 49.4053 12.9283 49.4053 13.9558 49.4053C13.9558 48.2738 13.9558 47.1942 13.9558 46.1277C13.9558 44.5019 14.6451 43.7996 16.2579 43.7996C17.1423 43.7866 18.0398 43.7996 18.9632 43.7996ZM45.0409 57.2611C31.7224 57.2611 18.456 57.2611 5.18952 57.2611C5.18952 58.8739 5.18952 60.4347 5.18952 62.0214C18.495 62.0214 31.7484 62.0214 45.0409 62.0214C45.0409 60.4347 45.0409 58.8739 45.0409 57.2611ZM45.0539 51.0311C44.7937 51.0311 44.5856 51.0311 44.3775 51.0311C33.3352 51.0311 22.2798 51.0311 11.2375 51.0311C11.1334 51.0311 11.0294 51.0441 10.9253 51.0311C10.5741 51.0051 10.4181 51.1742 10.4311 51.5123C10.4441 52.1106 10.4311 52.6959 10.4311 53.2942C10.4311 54.0486 10.4311 54.8029 10.4311 55.5443C22.0327 55.5443 33.5433 55.5443 45.0669 55.5443C45.0539 54.0356 45.0539 52.5789 45.0539 51.0311ZM45.0539 45.4254C44.7807 45.4254 44.5596 45.4254 44.3255 45.4254C35.013 45.4254 25.7005 45.4254 16.388 45.4254C16.2449 45.4254 16.0758 45.3864 15.9457 45.4384C15.8027 45.5034 15.5816 45.6465 15.5816 45.7505C15.5555 46.9471 15.5686 48.1437 15.5686 49.3533C25.4403 49.3533 35.2341 49.3533 45.0539 49.3533C45.0539 48.0657 45.0539 46.791 45.0539 45.4254ZM45.0539 39.3384C36.9119 39.3384 28.809 39.3384 20.693 39.3384C20.693 40.8212 20.693 42.2909 20.693 43.7476C28.848 43.7476 36.9379 43.7476 45.0539 43.7476C45.0539 42.2779 45.0539 40.8472 45.0539 39.3384ZM45.0539 37.6476C45.0539 36.1909 45.0539 34.7862 45.0539 33.2905C44.8067 33.2905 44.5726 33.2905 44.3515 33.2905C38.9799 33.2905 33.5953 33.2905 28.2237 33.2905C28.0806 33.2905 27.9115 33.2515 27.7815 33.3035C27.6384 33.3685 27.4173 33.5116 27.4173 33.6287C27.3913 34.9553 27.4043 36.2819 27.4043 37.6346C33.3092 37.6476 39.136 37.6476 45.0539 37.6476ZM33.3352 31.6387C37.3021 31.6387 41.152 31.6387 45.0409 31.6387C45.0409 30.0909 45.0409 28.5822 45.0409 27.0215C44.2475 27.0215 43.4931 27.0215 42.7257 27.0215C39.8123 27.0215 36.8859 27.0215 33.9725 27.0215C33.6863 27.0215 33.3352 26.9564 33.3352 27.4116C33.3352 28.8033 33.3352 30.195 33.3352 31.6387ZM63.3928 2.95978C59.868 2.95978 56.4214 2.95978 53.0007 2.95978C53.0007 4.05231 53.0007 5.09281 53.0007 6.18534C54.0802 6.18534 55.1207 6.18534 56.1482 6.18534C58.3463 6.18534 60.5444 6.18534 62.7424 6.18534C63.0676 6.18534 63.3928 6.21136 63.3928 5.73012C63.3798 4.80667 63.3928 3.90924 63.3928 2.95978ZM45.0539 21.4548C42.9598 21.4548 40.9309 21.4548 38.8759 21.4548C38.8759 22.7684 38.8759 24.043 38.8759 25.3306C40.9569 25.3306 42.9859 25.3306 45.0539 25.3306C45.0539 24.03 45.0539 22.7684 45.0539 21.4548ZM52.9747 10.5034C54.9257 10.5034 56.7986 10.5164 58.6845 10.4904C58.8406 10.4904 59.1137 10.2563 59.1267 10.1132C59.1657 9.35888 59.1527 8.60452 59.1527 7.85015C57.0457 7.85015 55.0297 7.85015 52.9877 7.85015C52.9747 8.74759 52.9747 9.57999 52.9747 10.5034ZM45.0279 19.7509C45.0279 18.3983 45.0279 17.0976 45.0279 15.758C44.2865 15.758 43.5842 15.745 42.8948 15.771C42.7648 15.771 42.5306 15.9661 42.5176 16.0831C42.4916 17.2927 42.5046 18.5153 42.5046 19.7509C43.3891 19.7509 44.1954 19.7509 45.0279 19.7509ZM52.9747 12.1682C52.9747 13.0917 52.9747 13.9501 52.9747 14.8866C53.9892 14.8866 54.9777 14.8996 55.9662 14.8736C56.0702 14.8736 56.2653 14.6785 56.2783 14.5744C56.3043 13.781 56.2913 12.9876 56.2913 12.1813C55.1468 12.1682 54.0933 12.1682 52.9747 12.1682Z" />
</svg>
