<svg width="57" height="57" viewBox="0 0 57 57" fill="#24242F" xmlns="http://www.w3.org/2000/svg">
<g id="&#208;&#159;&#209;&#128;&#208;&#184;&#209;&#133;&#208;&#190;&#208;&#182;&#209;&#150;">
<g id="Group">
<path id="Vector" d="M28.3928 56.7725C19.4184 56.7725 10.4441 56.7725 1.46971 56.7725C0.299145 56.7725 0 56.4864 0 55.3288C0 37.3671 0 19.4184 0 1.45671C0 0.299145 0.299145 0 1.46971 0C19.4574 0 37.4582 0 55.4459 0C56.5775 0 56.8896 0.299145 56.8896 1.41769C56.8896 19.3924 56.8896 37.3801 56.8896 55.3549C56.8896 56.4734 56.5905 56.7725 55.4589 56.7725C46.4325 56.7725 37.4192 56.7725 28.3928 56.7725ZM24.4128 2.02898C24.4128 15.2434 24.4128 28.3928 24.4128 41.5291C34.5838 41.5291 44.7027 41.5291 54.8216 41.5291C54.8216 28.3407 54.8216 15.1914 54.8216 2.02898C44.6767 2.02898 34.5578 2.02898 24.4128 2.02898ZM2.055 2.04199C2.055 15.2564 2.055 28.4058 2.055 41.5422C5.11148 41.5422 8.12894 41.5422 11.1334 41.5422C11.1334 28.3538 11.1334 15.2044 11.1334 2.04199C8.08992 2.04199 5.09847 2.04199 2.055 2.04199ZM22.3188 41.5552C22.3188 28.3408 22.3188 15.2044 22.3188 2.055C19.2623 2.055 16.2449 2.055 13.2404 2.055C13.2404 15.2434 13.2404 28.3928 13.2404 41.5552C16.2709 41.5552 19.2754 41.5552 22.3188 41.5552ZM22.3058 54.7436C22.3058 50.9977 22.3058 47.317 22.3058 43.6362C15.5295 43.6362 8.79227 43.6362 2.055 43.6362C2.055 47.356 2.055 51.0498 2.055 54.7436C8.81828 54.7436 15.5425 54.7436 22.3058 54.7436ZM24.3868 54.7306C29.1601 54.7306 33.8554 54.7306 38.5637 54.7306C38.5637 51.0108 38.5637 47.33 38.5637 43.6362C33.8164 43.6362 29.1081 43.6362 24.3868 43.6362C24.3868 47.343 24.3868 51.0108 24.3868 54.7306ZM40.6707 43.6102C40.6707 47.356 40.6707 51.0368 40.6707 54.7175C45.418 54.7175 50.1263 54.7175 54.8216 54.7175C54.8216 50.9977 54.8216 47.304 54.8216 43.6102C50.0873 43.6102 45.405 43.6102 40.6707 43.6102Z" />
<path id="Vector_2" d="M30.4219 31.0851C29.8626 30.9811 29.3684 30.89 28.8741 30.786C27.1313 30.4088 26.0517 28.77 26.546 27.0662C27.6385 23.2553 29.0822 19.5875 31.5144 16.401C31.9956 15.7637 32.737 15.3215 33.3353 14.7752C33.5304 14.6061 33.6995 14.385 33.8165 14.1509C34.6489 12.6161 35.4423 11.0554 36.3137 9.53365C36.6259 9.00039 37.0811 8.51916 37.5363 8.08995C38.863 6.80232 40.3717 6.77631 41.6853 8.07694C42.2966 8.67523 42.8689 9.36457 43.2981 10.0929C44.0785 11.4196 44.7288 12.8242 45.4311 14.1769C45.5352 14.372 45.6392 14.6321 45.8213 14.7102C46.8879 15.2304 47.6162 16.1018 48.2535 17.0643C50.3085 20.1468 51.7132 23.5284 52.7017 27.0922C53.1699 28.783 52.1034 30.3958 50.3996 30.786C49.9053 30.903 49.4111 30.9811 48.8258 31.0851C48.9429 32.0736 49.0599 33.0491 49.1509 34.0245C49.255 35.039 49.1119 35.2601 48.1755 35.5723C45.7433 36.3787 43.2981 37.107 40.7489 37.4322C38.876 37.6663 37.0811 37.2631 35.2992 36.8079C33.8295 36.4307 32.3858 35.9495 30.9291 35.4942C30.1747 35.2601 29.9927 34.974 30.0837 34.1676C30.1747 33.1661 30.3048 32.1646 30.4219 31.0851ZM38.5638 35.5463C38.5638 30.0836 38.5638 24.8161 38.5638 19.7436C37.2502 19.2754 36.0406 18.8332 34.805 18.3909C33.9726 23.4894 32.672 28.5749 32.1257 33.8945C34.2847 34.4407 36.3788 34.987 38.5638 35.5463ZM40.6578 35.3512C40.7489 35.3642 40.8139 35.3902 40.8659 35.3772C42.8559 34.8829 44.8329 34.3887 46.8228 33.8815C46.9399 33.8554 47.0699 33.6083 47.0569 33.4783C46.9919 32.7369 46.9269 32.0086 46.7968 31.2802C46.3156 28.5359 45.8083 25.8045 45.3011 23.0602C45.0019 21.4734 44.6898 19.8867 44.4036 18.404C43.155 18.8462 41.9324 19.2754 40.6448 19.7306C40.6578 24.8551 40.6578 30.0966 40.6578 35.3512ZM39.5783 17.6886C39.5913 17.6626 39.5913 17.6366 39.6043 17.6236C40.0856 17.5846 40.5798 17.5715 41.048 17.4805C42.0365 17.2984 42.986 16.9733 43.5712 16.0758C43.7013 15.8807 43.7924 15.5426 43.7143 15.3345C42.973 13.4876 42.1405 11.6927 40.8919 10.1319C39.8384 8.8183 39.2792 8.76627 38.3557 10.171C37.3412 11.7057 36.5478 13.3965 35.6374 14.9963C35.3252 15.5426 35.4553 15.9848 35.8715 16.3359C36.2877 16.6741 36.7429 17.0383 37.2372 17.2074C37.9915 17.4545 38.7979 17.5325 39.5783 17.6886ZM30.747 29.0821C31.4494 25.4144 32.1257 21.8116 32.828 18.1438C32.685 18.2089 32.6329 18.2089 32.6199 18.2349C30.695 21.1223 29.4074 24.3088 28.4709 27.6254C28.3148 28.1587 28.614 28.6009 29.1472 28.757C29.6415 28.913 30.1617 28.9651 30.747 29.0821ZM48.4876 29.0561C48.7478 29.0301 48.8908 29.0171 49.0469 28.9911C49.359 28.9261 49.6712 28.874 49.9703 28.796C50.6467 28.6139 50.9328 28.1327 50.7377 27.4433C49.8403 24.3478 48.6177 21.3954 46.9269 18.6511C46.8228 18.469 46.6798 18.3129 46.5627 18.1438C46.5237 18.1698 46.4717 18.1958 46.4326 18.2219C47.109 21.8246 47.7983 25.4144 48.4876 29.0561Z" />
<path id="Vector_3" d="M27.4303 7.67377C27.4303 7.16653 27.4173 6.65928 27.4303 6.15203C27.4564 5.50172 27.8726 5.07251 28.4448 5.07251C29.0171 5.07251 29.4333 5.51472 29.4463 6.15203C29.4593 7.06248 29.4463 7.97292 29.4463 8.87035C29.4463 9.63772 29.7975 10.0799 30.4088 10.119C30.9941 10.158 31.3843 9.78079 31.5013 9.06545C31.6054 8.42814 32.0736 8.03795 32.6199 8.11599C33.2051 8.19402 33.5563 8.70127 33.4913 9.3776C33.3612 10.9384 31.9695 12.174 30.3958 12.1479C28.822 12.1089 27.5084 10.8343 27.4303 9.24753C27.4173 8.72728 27.4433 8.19402 27.4303 7.67377C27.4433 7.67377 27.4433 7.67377 27.4303 7.67377Z" />
<path id="Vector_4" d="M47.7591 7.72575C47.7591 7.25752 47.7591 6.8023 47.7591 6.33407C47.7721 5.54069 48.1493 5.07246 48.7866 5.08547C49.3979 5.09848 49.7621 5.5537 49.7751 6.30806C49.7751 7.19249 49.7751 8.07692 49.7751 8.96135C49.7751 9.66369 50.1522 10.1059 50.7375 10.1449C51.3098 10.1709 51.713 9.79375 51.817 9.14344C51.9341 8.4541 52.3763 8.05091 52.9486 8.14195C53.5339 8.21999 53.872 8.72724 53.807 9.40356C53.6639 10.9383 52.3113 12.1609 50.7635 12.1609C49.1898 12.1609 47.8371 10.8863 47.7461 9.31252C47.7331 8.77926 47.7591 8.246 47.7591 7.72575Z" />
<path id="Vector_5" d="M7.11432 24.2958C7.11432 23.0342 7.11432 21.7596 7.11432 20.498C7.11432 19.7436 7.49151 19.2884 8.1028 19.2754C8.7141 19.2624 9.1173 19.7306 9.1173 20.472C9.1173 23.0472 9.1173 25.6225 9.1173 28.1977C9.1173 28.9391 8.70109 29.3943 8.0898 29.3813C7.4785 29.3683 7.10132 28.9131 7.10132 28.1587C7.11432 26.8711 7.11432 25.5835 7.11432 24.2958Z" />
<path id="Vector_6" d="M15.2434 24.3088C15.2434 23.0602 15.2434 21.8116 15.2434 20.576C15.2434 19.7696 15.6076 19.3014 16.2319 19.2883C16.8562 19.2753 17.2464 19.7436 17.2594 20.537C17.2594 23.0732 17.2594 25.6094 17.2594 28.1326C17.2594 28.926 16.8692 29.3943 16.2449 29.3943C15.6206 29.3812 15.2564 28.913 15.2564 28.1066C15.2434 26.832 15.2434 25.5704 15.2434 24.3088Z" />
<path id="Vector_7" d="M12.1867 49.6841C10.9381 49.6841 9.68951 49.6841 8.4409 49.6841C7.58249 49.6841 7.11426 49.3069 7.11426 48.6696C7.12726 48.0453 7.58248 47.6812 8.40188 47.6812C10.9251 47.6812 13.4353 47.6812 15.9585 47.6812C16.7779 47.6812 17.2332 48.0453 17.2462 48.6696C17.2592 49.32 16.7779 49.6841 15.9325 49.6841C14.6839 49.6841 13.4353 49.6841 12.1867 49.6841Z" />
<path id="Vector_8" d="M36.5608 48.6826C36.5608 49.3199 36.5738 49.9442 36.5608 50.5815C36.5478 51.2708 36.1186 51.713 35.5333 51.7C34.961 51.687 34.5709 51.2448 34.5579 50.5945C34.5448 49.3069 34.5448 48.0192 34.5579 46.7316C34.5709 46.0813 34.9871 45.6521 35.5593 45.6521C36.1316 45.6521 36.5478 46.0813 36.5608 46.7316C36.5738 47.3689 36.5608 48.0323 36.5608 48.6826Z" />
<path id="Vector_9" d="M44.6897 48.6956C44.6897 49.3329 44.7027 49.9572 44.6897 50.5945C44.6767 51.2448 44.2735 51.6871 43.7143 51.7001C43.129 51.7131 42.6998 51.2708 42.6868 50.5815C42.6738 49.3199 42.6738 48.0453 42.6868 46.7837C42.6868 46.0943 43.103 45.6391 43.7013 45.6521C44.2865 45.6521 44.6897 46.1073 44.6897 46.8097C44.7027 47.434 44.6897 48.0713 44.6897 48.6956Z" />
</g>
</g>
</svg>
