<svg width="29" height="37" viewBox="0 0 29 37" fill="none" xmlns="http://www.w3.org/2000/svg">
<path fill-rule="evenodd" clip-rule="evenodd" d="M1.20312 37V29.6881L13.5194 18.8661C13.5194 18.8662 13.5195 18.8661 13.5194 18.8661C14.9258 17.6298 15.9567 16.6259 16.6324 15.848C17.313 15.0485 17.7167 14.3994 17.9093 13.894L17.9129 13.8844L17.9168 13.8748C18.1356 13.3341 18.2422 12.7894 18.2422 12.2344V12.1875C18.2422 11.5421 18.0894 11.0235 17.8144 10.5944L17.8064 10.5819L17.7988 10.5692C17.5235 10.1104 17.142 9.75355 16.6305 9.49181L16.6223 9.48765L16.6143 9.48335C16.1102 9.21374 15.4961 9.0625 14.7422 9.0625C13.8619 9.0625 13.1373 9.23775 12.539 9.55522L12.5323 9.55882C11.9406 9.86699 11.4938 10.2873 11.17 10.827C10.8411 11.3752 10.6474 12.0177 10.608 12.7782L10.607 12.7977L10.4992 13.9844H0.710938V12.7734C0.710938 10.3936 1.31304 8.25361 2.5394 6.38817C3.75557 4.53822 5.43068 3.10934 7.53451 2.0992C9.65856 1.0712 12.0609 0.570312 14.7188 0.570312C17.4054 0.570312 19.7988 1.01786 21.8739 1.94511C23.9369 2.8514 25.5805 4.13799 26.7607 5.81953C27.97 7.50416 28.5625 9.46897 28.5625 11.6719V11.7188C28.5625 13.2739 28.2916 14.7144 27.7323 16.0253L27.7304 16.0297C27.1748 17.3144 26.2908 18.6013 25.1141 19.8924L25.1098 19.897C23.9506 21.1528 22.4207 22.6014 20.5299 24.2401L20.5242 24.245L15.6944 28.3672H29.0078V37H1.20312ZM13.2891 29.3672V29.1054L19.875 23.4844C21.75 21.8594 23.25 20.4375 24.375 19.2188C25.5 17.9844 26.3125 16.7891 26.8125 15.6328C27.3125 14.4609 27.5625 13.1562 27.5625 11.7188V11.6719C27.5625 9.65625 27.0234 7.89844 25.9453 6.39844C24.8828 4.88281 23.3906 3.70312 21.4688 2.85938C19.5469 2 17.2969 1.57031 14.7188 1.57031C12.1875 1.57031 9.9375 2.04688 7.96875 3C6.01562 3.9375 4.48438 5.25 3.375 6.9375C2.39997 8.42064 1.85342 10.1029 1.73534 11.9844C1.71907 12.2436 1.71094 12.5066 1.71094 12.7734V12.9844H9.58594L9.60938 12.7266C9.65625 11.8203 9.89062 11.0156 10.3125 10.3125C10.7344 9.60938 11.3203 9.0625 12.0703 8.67188C12.8359 8.26562 13.7266 8.0625 14.7422 8.0625C15.6328 8.0625 16.4141 8.24219 17.0859 8.60156C17.7578 8.94531 18.2812 9.42969 18.6562 10.0547C19.0469 10.6641 19.2422 11.375 19.2422 12.1875V12.2344C19.2422 12.9219 19.1094 13.5938 18.8438 14.25C18.5938 14.9062 18.1094 15.6562 17.3906 16.5C16.6719 17.3281 15.6016 18.3672 14.1797 19.6172L2.20312 30.1406V36H28.0078V29.3672H13.2891Z" fill="#24242F"/>
</svg>
