<svg width="31" height="38" viewBox="0 0 31 38" fill="none" xmlns="http://www.w3.org/2000/svg">
<path fill-rule="evenodd" clip-rule="evenodd" d="M0.620761 26.4749L0.620117 26.4673L0.513885 25.0859H10.644L10.8295 26.1989C10.8296 26.1994 10.8297 26.2 10.8298 26.2005C10.905 26.639 11.1021 27.0551 11.4559 27.4578C11.8029 27.8376 12.2897 28.1712 12.9543 28.4375C13.6084 28.6934 14.4158 28.8359 15.3984 28.8359C16.356 28.8359 17.1237 28.6807 17.731 28.408L17.7379 28.405C18.3801 28.1224 18.8262 27.7606 19.1266 27.3398C19.424 26.9082 19.5781 26.4153 19.5781 25.8281V25.7812C19.5781 24.691 19.1969 23.9664 18.477 23.4569C17.6962 22.9043 16.4857 22.5625 14.7188 22.5625H10.0625V14.7266H14.6719C15.6874 14.7266 16.4935 14.5758 17.1206 14.3124L17.1271 14.3097C17.7818 14.0401 18.2269 13.686 18.5208 13.2724L18.5258 13.2653L18.5309 13.2584C18.834 12.847 18.9922 12.3703 18.9922 11.7891V11.7422C18.9922 11.1268 18.8469 10.6551 18.5977 10.2813L18.5922 10.2732L18.587 10.265C18.3517 9.89671 17.9912 9.58855 17.447 9.35875L17.4395 9.35559C16.9081 9.12613 16.2223 8.99219 15.3516 8.99219C14.472 8.99219 13.7399 9.13182 13.1346 9.38401L13.1248 9.3881C12.5359 9.62619 12.1002 9.9548 11.7827 10.3624C11.4793 10.7563 11.2853 11.2239 11.2117 11.7909L11.0904 12.8828H1.31666L1.41705 11.4774C1.58625 9.29475 2.26814 7.36243 3.48254 5.7135C4.69036 4.05784 6.32024 2.78901 8.33818 1.89775L8.34098 1.89651C10.3826 1.00225 12.7274 0.570312 15.3516 0.570312C18.0068 0.570312 20.3623 0.958265 22.3953 1.76393C24.4356 2.5507 26.0673 3.68759 27.2308 5.20368C28.4058 6.7347 28.9844 8.53066 28.9844 10.5469V10.5938C28.9844 12.1698 28.6278 13.5953 27.8809 14.8349C27.173 16.0199 26.2169 16.991 25.0267 17.7436C24.7944 17.8905 24.5577 18.0285 24.3167 18.1576C25.6139 18.6103 26.7524 19.2669 27.7166 20.1402C29.4644 21.7088 30.3203 23.7869 30.3203 26.2734V26.3203C30.3203 28.5937 29.6921 30.6183 28.4142 32.3513L28.4114 32.3552C27.145 34.0552 25.3785 35.3519 23.1634 36.2679L23.1575 36.2703C20.9325 37.1736 18.338 37.6094 15.3984 37.6094C12.6209 37.6094 10.1455 37.1628 7.99585 36.2391C5.85893 35.3209 4.12768 34.0264 2.8387 32.3421C1.54404 30.6504 0.807766 28.685 0.620761 26.4749ZM27.0469 20.8828C25.9481 19.887 24.5725 19.1888 22.9203 18.7884C22.3275 18.6447 21.6992 18.5393 21.0352 18.4723C21.0235 18.4711 21.0117 18.4699 21 18.4688V18.3047C21.0055 18.3035 21.011 18.3024 21.0166 18.3012C21.6514 18.167 22.2607 17.9816 22.8443 17.745C23.4184 17.5123 23.9677 17.2301 24.4922 16.8984C25.5547 16.2266 26.3985 15.3672 27.0235 14.3203C27.6641 13.2578 27.9844 12.0156 27.9844 10.5938V10.5469C27.9844 8.73438 27.4688 7.15625 26.4375 5.8125C25.4063 4.46875 23.9375 3.42969 22.0313 2.69531C20.1406 1.94531 17.9141 1.57031 15.3516 1.57031C12.8359 1.57031 10.6328 1.98438 8.7422 2.8125C6.8672 3.64062 5.38283 4.80469 4.28908 6.30469C3.31869 7.62164 2.71727 9.14769 2.48483 10.8828C2.45528 11.1034 2.4317 11.3274 2.41408 11.5547L2.39064 11.8828H10.1953L10.2188 11.6719C10.3125 10.9375 10.5703 10.2969 10.9922 9.75C11.4297 9.1875 12.0156 8.75781 12.75 8.46094C13.5 8.14844 14.3672 7.99219 15.3516 7.99219C16.3203 7.99219 17.1485 8.14062 17.836 8.4375C18.5391 8.73438 19.0703 9.16406 19.4297 9.72656C19.8047 10.2891 19.9922 10.9609 19.9922 11.7422V11.7891C19.9922 12.5703 19.7735 13.2578 19.336 13.8516C18.9141 14.4453 18.3047 14.9062 17.5078 15.2344C16.7266 15.5625 15.7813 15.7266 14.6719 15.7266H11.0625V21.5625H14.7188C16.5938 21.5625 18.0391 21.9219 19.0547 22.6406C20.0703 23.3594 20.5781 24.4062 20.5781 25.7812V25.8281C20.5781 26.6094 20.3672 27.3047 19.9453 27.9141C19.5235 28.5078 18.9219 28.9766 18.1406 29.3203C17.375 29.6641 16.4609 29.8359 15.3984 29.8359C14.3203 29.8359 13.3828 29.6797 12.5859 29.3672C11.8047 29.0547 11.1797 28.6406 10.7109 28.125C10.2422 27.5938 9.95314 27.0078 9.84376 26.3672L9.79689 26.0859H1.59376L1.6172 26.3906C1.6371 26.6257 1.66369 26.8575 1.69698 27.0859C1.95132 28.8309 2.5966 30.3804 3.63283 31.7344C4.8047 33.2656 6.39064 34.4609 8.39064 35.3203C10.3906 36.1797 12.7266 36.6094 15.3984 36.6094C18.2422 36.6094 20.7031 36.1875 22.7813 35.3438C24.8594 34.4844 26.4688 33.2891 27.6094 31.7578C28.75 30.2109 29.3203 28.3984 29.3203 26.3203V26.2734C29.3203 24.0391 28.5625 22.2422 27.0469 20.8828Z" fill="#24242F"/>
</svg>
