<svg width="32" height="36" viewBox="0 0 32 36" fill="none" xmlns="http://www.w3.org/2000/svg">
<path fill-rule="evenodd" clip-rule="evenodd" d="M17.3281 36V30.2344H0.617188V21.9496L0.759695 21.7121C1.60569 20.3021 2.45952 18.8999 3.3212 17.5056L3.32281 17.5029C4.19641 16.099 5.06219 14.695 5.92016 13.291L8.49828 9.0723C9.35809 7.66534 10.2179 6.26617 11.0777 4.8748C11.9353 3.47158 12.785 2.06838 13.6269 0.665192L13.9182 0.179688H27.4844V21.5312H31.7734V30.2344H27.4844V36H17.3281ZM26.4844 29.2344H30.7734V22.5312H26.4844V1.17969H14.4844C13.6406 2.58594 12.7891 3.99219 11.9297 5.39844C11.0703 6.78906 10.2109 8.1875 9.35156 9.59375L6.77344 13.8125C5.91406 15.2188 5.04688 16.625 4.17188 18.0312C3.3125 19.4219 2.46094 20.8203 1.61719 22.2266V29.2344H18.3281V35H26.4844V29.2344ZM18.5625 22.8359H8.8125V22.6016C8.97104 22.3464 9.1291 22.0911 9.28668 21.8359C9.76586 21.0599 10.2406 20.2839 10.7109 19.5078L12.6328 16.4141C13.2891 15.3672 13.9297 14.3281 14.5547 13.2969C15.1953 12.2656 15.8281 11.2344 16.4531 10.2031L18.375 7.10938H18.5625V22.8359ZM17.5625 10.3124L17.3054 10.7262C16.6804 11.7575 16.0476 12.7887 15.407 13.8199C14.7806 14.8535 14.1386 15.8946 13.4812 16.9435C13.4808 16.944 13.4805 16.9446 13.4801 16.9452L13.4785 16.9478L11.5633 20.0309C11.1986 20.6326 10.8312 21.2343 10.4613 21.8359H17.5625V10.3124Z" fill="#24242F"/>
</svg>
