<svg width="30" height="37" viewBox="0 0 30 37" fill="none" xmlns="http://www.w3.org/2000/svg">
<path fill-rule="evenodd" clip-rule="evenodd" d="M7.67608 35.182L7.67005 35.1793C5.59934 34.2107 3.93502 32.8898 2.71363 31.2039C1.49146 29.517 0.810982 27.6088 0.673982 25.5024L0.673817 25.4999L0.583984 24.0625H10.2309L10.4874 24.9604L10.4897 24.9689C10.6369 25.5209 10.8986 26.0174 11.2839 26.4665C11.6834 26.9143 12.1822 27.2846 12.7951 27.5732C13.3991 27.8354 14.0998 27.9766 14.9141 27.9766C15.8511 27.9766 16.6375 27.788 17.2999 27.4395C17.97 27.0715 18.4828 26.5741 18.8568 25.9383C19.225 25.3123 19.4219 24.5772 19.4219 23.7031V23.6562C19.4219 22.7818 19.2249 22.0581 18.8613 21.452L18.8568 21.4445C18.4834 20.8098 17.9727 20.3222 17.3063 19.9701C16.6426 19.6195 15.8541 19.4297 14.9141 19.4297C14.3083 19.4297 13.7598 19.517 13.2615 19.6831L13.2505 19.6867L13.2394 19.6902C12.7243 19.8486 12.2748 20.069 11.8834 20.3468L11.8758 20.3522C11.581 20.5573 11.322 20.7845 11.0964 21.0336C10.8771 21.293 10.6931 21.5612 10.542 21.8382L10.2577 22.3594H1.13634L2.73348 0.179688H27.4219V8.8125H11.3635L10.9891 13.6797C11.0336 13.6451 11.0785 13.6108 11.1239 13.577C11.9589 12.9385 12.9225 12.4521 14.0021 12.1094C15.0965 11.7619 16.2781 11.5938 17.5391 11.5938C19.8295 11.5938 21.8948 12.0966 23.7054 13.1308C25.5151 14.1556 26.941 15.5719 27.968 17.3679C29.0182 19.1769 29.5312 21.2278 29.5312 23.4922V23.5391C29.5312 26.1098 28.9197 28.4086 27.6667 30.3998C26.4214 32.3785 24.6837 33.9135 22.4835 35.0052L22.478 35.0079C20.2712 36.086 17.7412 36.6094 14.9141 36.6094C12.1921 36.6094 9.77051 36.1448 7.67608 35.182ZM27.1016 17.8672C26.1641 16.2266 24.8672 14.9375 23.2109 14C21.5703 13.0625 19.6797 12.5938 17.5391 12.5938C16.3672 12.5938 15.2891 12.75 14.3047 13.0625C13.3203 13.375 12.4609 13.8125 11.7266 14.375C11.4192 14.6039 11.1365 14.8519 10.8784 15.1191C10.5198 15.4903 10.2088 15.8986 9.94531 16.3438H9.78125L10.4375 7.8125H26.4219V1.17969H3.66406L2.21094 21.3594H9.66406C9.85156 21.0156 10.0781 20.6875 10.3437 20.375C10.625 20.0625 10.9453 19.7812 11.3047 19.5312C11.7891 19.1875 12.3359 18.9219 12.9453 18.7344C13.5547 18.5312 14.2109 18.4297 14.9141 18.4297C15.9922 18.4297 16.9453 18.6484 17.7734 19.0859C18.6016 19.5234 19.25 20.1406 19.7187 20.9375C20.1875 21.7188 20.4219 22.625 20.4219 23.6562V23.7031C20.4219 24.7344 20.1875 25.6484 19.7187 26.4453C19.25 27.2422 18.6016 27.8672 17.7734 28.3203C16.9453 28.7578 15.9922 28.9766 14.9141 28.9766C13.9766 28.9766 13.1328 28.8125 12.3828 28.4844C11.6484 28.1406 11.0312 27.6875 10.5312 27.125C10.0469 26.5625 9.71094 25.9297 9.52344 25.2266L9.47656 25.0625H1.64844L1.67187 25.4375C1.68558 25.6482 1.70519 25.8565 1.73073 26.0625C1.9381 27.7356 2.53567 29.2538 3.52344 30.6172C4.63281 32.1484 6.15625 33.3672 8.09375 34.2734C10.0312 35.1641 12.3047 35.6094 14.9141 35.6094C17.6172 35.6094 19.9922 35.1094 22.0391 34.1094C24.0859 33.0938 25.6797 31.6797 26.8203 29.8672C27.9609 28.0547 28.5312 25.9453 28.5312 23.5391V23.4922C28.5312 21.3828 28.0547 19.5078 27.1016 17.8672Z" fill="#24242F"/>
</svg>
