<svg width="32" height="38" viewBox="0 0 32 38" fill="none" xmlns="http://www.w3.org/2000/svg">
<path fill-rule="evenodd" clip-rule="evenodd" d="M9.98034 36.3529C8.03057 35.4957 6.3612 34.2566 4.98181 32.6417C3.60332 31.0278 2.55935 29.0863 1.83696 26.837L1.8343 26.8287C1.12703 24.5589 0.78125 22.0185 0.78125 19.2188V19.1719C0.78125 15.4253 1.39201 12.1452 2.65139 9.36127L2.65342 9.35678C3.92764 6.57671 5.75034 4.39847 8.12961 2.86292L8.13231 2.86117C10.5344 1.32182 13.3449 0.570312 16.5234 0.570312C18.9718 0.570312 21.2137 1.00626 23.2321 1.89775C25.2316 2.78086 26.8982 3.99278 28.2087 5.54156C29.5159 7.08646 30.35 8.84651 30.6975 10.8076L31.0464 12.2031H20.6687L20.3414 11.4394C20.1448 10.9991 19.88 10.6288 19.5461 10.3187L19.5392 10.3123L19.5324 10.3058C19.1932 9.9787 18.779 9.70938 18.2767 9.50329C17.8123 9.31278 17.2352 9.20312 16.5234 9.20312C15.3232 9.20312 14.4054 9.54372 13.6925 10.1721C12.9253 10.8482 12.3072 11.7988 11.8674 13.0757L11.8662 13.0789C11.5861 13.8832 11.3703 14.7707 11.2223 15.7442C11.273 15.6931 11.3244 15.6426 11.3764 15.5924C12.3421 14.6619 13.5 13.9519 14.8337 13.4553C16.1825 12.9374 17.6722 12.6875 19.2891 12.6875C21.6368 12.6875 23.7294 13.1882 25.531 14.2276C27.3129 15.2556 28.7082 16.6763 29.7025 18.4757C30.7011 20.267 31.1875 22.2973 31.1875 24.5391V24.5859C31.1875 27.1218 30.5465 29.4016 29.243 31.3914C27.9682 33.3455 26.2208 34.8743 24.0281 35.979L24.0226 35.9817C21.8192 37.075 19.3354 37.6094 16.5938 37.6094C14.168 37.6094 11.9608 37.1993 9.98984 36.3571L9.98034 36.3529ZM28.4062 30.8438C29.5938 29.0312 30.1875 26.9453 30.1875 24.5859V24.5391C30.1875 22.4453 29.7344 20.5859 28.8281 18.9609C27.9219 17.3203 26.6562 16.0312 25.0312 15.0938C23.4062 14.1562 21.4922 13.6875 19.2891 13.6875C17.7734 13.6875 16.4062 13.9219 15.1875 14.3906C13.9688 14.8438 12.9297 15.4844 12.0703 16.3125C11.6819 16.6865 11.3366 17.087 11.0343 17.5139C11.017 17.5383 11 17.5627 10.983 17.5872C10.9826 17.5879 10.9821 17.5885 10.9817 17.5891C10.812 17.8346 10.6563 18.0888 10.5146 18.3516C10.5095 18.3611 10.5044 18.3706 10.4993 18.3802C10.3706 18.6212 10.2536 18.8695 10.1484 19.125H9.98438V18.3516C9.9886 18.2755 9.99283 18.1999 9.99706 18.125C10.0085 17.9229 10.0199 17.725 10.0312 17.5312C10.0386 17.411 10.0467 17.2917 10.0557 17.1733C10.1812 15.522 10.4699 14.0476 10.9219 12.75C11.4062 11.3438 12.1094 10.2344 13.0312 9.42188C13.9531 8.60938 15.1172 8.20312 16.5234 8.20312C17.3359 8.20312 18.0469 8.32812 18.6562 8.57812C19.2656 8.82812 19.7891 9.16406 20.2266 9.58594C20.6641 9.99219 21.0078 10.4766 21.2578 11.0391L21.3281 11.2031H29.7656L29.7188 11.0156C29.6709 10.7404 29.6126 10.4696 29.5438 10.2031C29.1636 8.73012 28.4642 7.39158 27.4453 6.1875C26.2422 4.76562 24.7031 3.64062 22.8281 2.8125C20.9531 1.98438 18.8516 1.57031 16.5234 1.57031C13.5078 1.57031 10.8906 2.28125 8.67188 3.70312C6.46875 5.125 4.76562 7.14844 3.5625 9.77344C2.375 12.3984 1.78125 15.5312 1.78125 19.1719V19.2188C1.78125 21.9375 2.11719 24.375 2.78906 26.5312C3.47656 28.6719 4.46094 30.4922 5.74219 31.9922C7.02344 33.4922 8.57031 34.6406 10.3828 35.4375C12.2109 36.2188 14.2812 36.6094 16.5938 36.6094C19.2031 36.6094 21.5312 36.1016 23.5781 35.0859C25.625 34.0547 27.2344 32.6406 28.4062 30.8438ZM11.1752 25.8438C11.2828 26.4243 11.4874 26.9659 11.7891 27.4688C12.2734 28.2344 12.9219 28.8438 13.7344 29.2969C14.5625 29.75 15.4766 29.9766 16.4766 29.9766C17.4766 29.9766 18.3828 29.7578 19.1953 29.3203C20.0078 28.8672 20.6562 28.2578 21.1406 27.4922C21.6406 26.7266 21.8906 25.8672 21.8906 24.9141V24.8672C21.8906 23.8516 21.6484 22.9609 21.1641 22.1953C20.6953 21.4141 20.0547 20.8125 19.2422 20.3906C18.4453 19.9531 17.5469 19.7344 16.5469 19.7344C15.5156 19.7344 14.5859 19.9531 13.7578 20.3906C12.9453 20.8125 12.2969 21.4062 11.8125 22.1719C11.7516 22.2682 11.6944 22.3664 11.6412 22.4665C11.271 23.1615 11.0859 23.9461 11.0859 24.8203V24.8438C11.0859 25.189 11.1157 25.5223 11.1752 25.8438ZM18.7147 28.4433C19.3825 28.0696 19.9041 27.5763 20.2955 26.9575L20.2994 26.9514L20.3034 26.9454C20.6925 26.3495 20.8906 25.6817 20.8906 24.9141V24.8672C20.8906 24.0172 20.6902 23.3168 20.319 22.73L20.3127 22.72L20.3066 22.7098C19.9335 22.088 19.4305 21.6152 18.7814 21.2781L18.7711 21.2728L18.7609 21.2672C18.1259 20.9186 17.3958 20.7344 16.5469 20.7344C15.6617 20.7344 14.895 20.9208 14.2249 21.2748L14.2186 21.2781C13.5615 21.6194 13.0463 22.0921 12.6576 22.7065C12.2847 23.2958 12.0859 23.9893 12.0859 24.8203V24.8438C12.0859 25.6388 12.2749 26.3308 12.6405 26.9442C13.0318 27.5591 13.5524 28.0497 14.2179 28.4215C14.8892 28.7881 15.6355 28.9766 16.4766 28.9766C17.3225 28.9766 18.0615 28.7936 18.7147 28.4433Z" fill="#24242F"/>
</svg>
