<svg width="36" height="36" viewBox="0 0 36 36" fill="none" xmlns="http://www.w3.org/2000/svg">
<g id="Group 18">
<circle id="Ellipse 3" cx="18" cy="18" r="18" fill="#E52005"/>
<path id="Vector" d="M27 14.8449C27 20.3149 18.1964 24.7425 17.8215 24.9254C17.7227 24.9744 17.6122 25 17.5 25C17.3878 25 17.2773 24.9744 17.1785 24.9254C16.8036 24.7425 8 20.3149 8 14.8449C8.00157 13.5604 8.55614 12.3289 9.54204 11.4206C10.5279 10.5124 11.8647 10.0014 13.2589 10C15.0105 10 16.5441 10.6939 17.5 11.8668C18.4559 10.6939 19.9895 10 21.7411 10C23.1353 10.0014 24.4721 10.5124 25.458 11.4206C26.4439 12.3289 26.9984 13.5604 27 14.8449Z" fill="#F9F9F9"/>
</g>
</svg>
