<svg width="26" height="26" viewBox="0 0 26 26" fill="none" xmlns="http://www.w3.org/2000/svg">
<path d="M13 20.1996V16.5996" stroke="#141B34" stroke-width="1.5" stroke-linecap="round"/>
<path d="M1.42167 14.4562C0.998044 11.6994 0.786232 10.3211 1.3074 9.09924C1.82856 7.87733 2.98483 7.0413 5.29736 5.36926L7.02518 4.11999C9.90193 2.04 11.3404 1 13 1C14.6597 1 16.098 2.04 18.9747 4.11999L20.7026 5.36926C23.0151 7.0413 24.1714 7.87733 24.6926 9.09924C25.2138 10.3211 25.002 11.6994 24.5782 14.4562L24.217 16.8068C23.6166 20.7146 23.3162 22.6686 21.9147 23.8343C20.5133 25 18.4644 25 14.3665 25H11.6334C7.5356 25 5.48668 25 4.08519 23.8343C2.6837 22.6686 2.38344 20.7146 1.78291 16.8068L1.42167 14.4562Z" stroke="#141B34" stroke-width="1.5" stroke-linejoin="round"/>
</svg>
