<svg width="20" height="20" viewBox="0 0 20 20" fill="none" xmlns="http://www.w3.org/2000/svg">
<path d="M3.24999 7.75H2.79999C1.95147 7.75 1.52721 7.75 1.2636 8.0136C1 8.27722 1 8.70148 1 9.54999V17.2C1 18.0485 1 18.4727 1.2636 18.7363C1.52721 18.9999 1.95147 18.9999 2.79999 18.9999H3.24999C4.09851 18.9999 4.52277 18.9999 4.78638 18.7363C5.04998 18.4727 5.04998 18.0485 5.04998 17.2V9.54999C5.04998 8.70148 5.04998 8.27722 4.78638 8.0136C4.52277 7.75 4.09851 7.75 3.24999 7.75Z" stroke="#DCDCDC"/>
<path d="M5.04998 3.02499C5.04998 4.14336 4.14336 5.04998 3.02499 5.04998C1.90662 5.04998 1 4.14336 1 3.02499C1 1.90662 1.90662 1 3.02499 1C4.14336 1 5.04998 1.90662 5.04998 3.02499Z" stroke="#DCDCDC"/>
<path d="M10.2934 7.75H9.54996C8.70144 7.75 8.27719 7.75 8.01357 8.0136C7.74997 8.27722 7.74997 8.70148 7.74997 9.54999V17.2C7.74997 18.0485 7.74997 18.4727 8.01357 18.7363C8.27719 18.9999 8.70144 18.9999 9.54996 18.9999H9.99996C10.8485 18.9999 11.2727 18.9999 11.5363 18.7363C11.7999 18.4727 11.7999 18.0485 11.7999 17.2L11.8 14.0501C11.8 12.5589 12.2752 11.3501 13.6791 11.3501C14.3809 11.3501 14.9499 11.9545 14.9499 12.7001V16.75C14.9499 17.5986 14.9499 18.0228 15.2135 18.2864C15.4771 18.55 15.9014 18.55 16.7499 18.55H17.1988C18.0471 18.55 18.4713 18.55 18.7349 18.2865C18.9985 18.023 18.9986 17.5988 18.9987 16.7505L19 11.8002C19 9.56349 16.8727 7.75022 14.7671 7.75022C13.5684 7.75022 12.499 8.33779 11.8 9.25659C11.7999 8.68951 11.7999 8.40601 11.6768 8.1955C11.5988 8.06217 11.4877 7.95118 11.3545 7.87318C11.1439 7.75 10.8604 7.75 10.2934 7.75Z" stroke="#DCDCDC" stroke-linejoin="round"/>
</svg>
