<svg width="140" height="48" viewBox="0 0 140 48" fill="none" xmlns="http://www.w3.org/2000/svg">
<path d="M38.85 43.2148H25.0068C24.8617 43.2148 24.7437 43.1035 24.7437 42.9665V42.9604C24.7437 42.8319 24.8474 42.7267 24.9822 42.7133C26.1709 42.5971 27.0083 42.3953 27.4931 42.1079C28.4096 41.5648 28.8685 40.8126 28.8685 39.8513C28.8685 39.2801 28.6611 38.5144 28.2476 37.5531L27.8704 36.6749L25.808 31.8975C25.7678 31.8033 25.6706 31.7422 25.5643 31.7422H16.1648C16.0546 31.7422 15.9574 31.8058 15.9185 31.9024L14.8296 34.625L14.2748 35.9202C13.6098 37.4528 13.2767 38.6575 13.2767 39.5357C13.2767 40.0518 13.3985 40.5325 13.6422 40.9777C13.8859 41.4242 14.2152 41.7862 14.6287 42.0638C15.1563 42.4075 15.8187 42.624 16.6172 42.7108C16.7481 42.7255 16.8467 42.8319 16.8467 42.9567V42.964C16.8467 43.101 16.7287 43.2123 16.5835 43.2123H7.26315C7.11796 43.2123 7 43.101 7 42.964V42.9628C7 42.8368 7.09981 42.728 7.23204 42.7157C7.91259 42.6534 8.51667 42.4785 9.04426 42.191C9.63018 41.8718 10.2019 41.3569 10.7593 40.6487C11.2285 40.0787 11.6861 39.3461 12.1333 38.4496C12.5806 37.5531 13.1704 36.2089 13.9028 34.4158L21.8828 14.9149C21.9217 14.8195 22.0202 14.7559 22.1291 14.7559H23.0248C23.1311 14.7559 23.2283 14.817 23.2685 14.91L32.7626 36.6675C33.4807 38.3212 34.0524 39.5027 34.4776 40.2121C34.9028 40.9215 35.3643 41.456 35.862 41.8168C36.2133 42.0675 36.6165 42.2583 37.0715 42.3904C37.4863 42.5115 38.0904 42.6179 38.885 42.7084C39.0172 42.7231 39.1157 42.8295 39.1157 42.9555V42.9652C39.1131 43.1035 38.9952 43.2148 38.85 43.2148ZM25.1469 30.6548L20.9144 20.804C20.825 20.5949 20.51 20.5973 20.4244 20.8089L16.4331 30.6597C16.367 30.8224 16.4941 30.9973 16.6794 30.9973H24.9031C25.0898 30.9973 25.2181 30.8187 25.1469 30.6548Z" fill="#FFE594"/>
<path d="M38.64 42.9699V42.9552C38.64 42.8219 38.7541 42.7155 38.8954 42.7106C40.2409 42.6666 41.2896 42.2715 42.0415 41.5266C42.4913 41.0814 42.8011 40.5151 42.9683 39.8278C43.1356 39.1392 43.2185 38.0873 43.2185 36.6697V21.3028C43.2185 19.8302 43.1278 18.7417 42.9463 18.0396C42.7648 17.3376 42.4265 16.7652 41.9326 16.3199C41.5256 15.9591 41.0706 15.6949 40.5702 15.5274C40.1217 15.3782 39.5617 15.2852 38.8876 15.2473C38.7489 15.24 38.64 15.1335 38.64 15.0027V15.0015C38.64 14.8657 38.7567 14.7568 38.8993 14.7568H52.4339C52.5778 14.7568 52.6932 14.8669 52.6932 15.0015V15.0063C52.6932 15.136 52.5869 15.2412 52.4508 15.251C51.7611 15.2999 51.1869 15.399 50.7306 15.5482C50.2211 15.7145 49.7713 15.9787 49.3785 16.3407C48.8846 16.7994 48.5502 17.3767 48.3752 18.0714C48.2002 18.7661 48.1133 19.8437 48.1133 21.3028V33.3319C48.1133 35.18 48.1639 36.556 48.2663 37.4599C48.3674 38.3637 48.5645 39.1 48.8548 39.67C49.363 40.6705 50.12 41.4043 51.1234 41.8691C52.1267 42.3351 53.4567 42.5675 55.1146 42.5675C56.8439 42.5675 58.3022 42.3486 59.4871 41.9107C60.6719 41.4728 61.6428 40.7952 62.3985 39.8779C62.9067 39.2529 63.3254 38.5435 63.6521 37.751C63.9606 37.0024 64.2471 36.0313 64.5102 34.8376C64.5374 34.7165 64.6554 34.6309 64.7863 34.6419L64.8343 34.6455C64.9717 34.6565 65.0767 34.7666 65.0715 34.8975L64.8032 42.976C64.7993 43.1081 64.6839 43.2133 64.5439 43.2133H38.8993C38.7567 43.2145 38.64 43.1044 38.64 42.9699Z" fill="#FFE594"/>
<path d="M64.8538 33.3929V27.2102C64.8538 25.4869 66.3341 24.0889 68.1619 24.0889H68.1697V30.2716C68.1697 31.9949 66.6893 33.3929 64.8615 33.3929H64.8538Z" fill="#FFE594"/>
<path d="M80.1707 15.6507C80.1707 15.5137 80.054 15.4024 79.9089 15.4036C79.0546 15.4085 78.1459 15.4366 77.1814 15.4868C74.909 15.5981 73.2148 15.8696 72.1013 16.3001C70.9864 16.7307 70.0687 17.4743 69.3453 18.5311C68.7101 19.4618 68.2163 20.7106 67.865 22.2774C67.8377 22.3997 67.7185 22.4841 67.5876 22.4743L67.5603 22.4719C67.4203 22.4608 67.3153 22.3471 67.3218 22.2138L67.6964 14.9926C67.7029 14.8618 67.8183 14.7578 67.957 14.7578H97.5644C97.7031 14.7578 97.8185 14.8606 97.825 14.9926L98.2061 22.1979C98.2126 22.33 98.1076 22.4449 97.9676 22.456L97.9313 22.4584C97.799 22.4694 97.6811 22.3838 97.6539 22.2615C97.2468 20.4403 96.6259 19.0509 95.7937 18.0969C94.929 17.1049 93.669 16.3943 92.015 15.9638C90.6539 15.5993 88.3724 15.4122 85.1718 15.4024C85.0266 15.4024 84.9087 15.5125 84.9087 15.6494V36.6243C84.9087 38.0394 84.9955 39.09 85.1679 39.7762C85.3403 40.4623 85.6605 41.0286 86.1272 41.4714C86.5485 41.8738 87.0255 42.1649 87.5596 42.3447C88.0418 42.5073 88.655 42.6137 89.4003 42.6639C89.5377 42.6737 89.6453 42.7801 89.6453 42.9097V42.9672C89.6453 43.103 89.5287 43.2143 89.3835 43.2143H75.7607C75.6168 43.2143 75.4988 43.1042 75.4988 42.9672V42.966C75.4988 42.8351 75.6064 42.7287 75.7439 42.7201C76.4866 42.67 77.0959 42.5636 77.5677 42.4009C78.0914 42.2199 78.5607 41.9288 78.9729 41.5252C79.4305 41.08 79.7442 40.5174 79.914 39.8361C80.0838 39.1548 80.1681 38.0993 80.1681 36.6671L80.1707 15.6507Z" fill="#FFE594"/>
<path d="M111.104 15.0041C111.104 15.135 111.01 15.2414 110.888 15.2512C110.246 15.3014 109.718 15.4078 109.304 15.5704C108.842 15.7515 108.431 16.0426 108.067 16.4462C107.561 17.0027 107.249 17.7732 107.132 18.7603C107.055 19.4966 107.016 20.3454 107.016 21.3043V36.6822C107.016 37.8332 107.07 38.7419 107.178 39.4073C107.285 40.0726 107.462 40.6071 107.705 41.0095C108.057 41.5648 108.51 41.977 109.065 42.2473C109.575 42.4956 110.237 42.6534 111.054 42.7206C111.179 42.7304 111.278 42.8368 111.278 42.9665V42.9677C111.278 43.1035 111.17 43.2148 111.037 43.2148H98.8931C98.7661 43.2148 98.6624 43.1047 98.6624 42.9677C98.6624 42.8368 98.757 42.7304 98.8788 42.7206C99.5322 42.6705 100.066 42.5604 100.482 42.3904C100.943 42.2033 101.348 41.9146 101.7 41.5257C102.114 41.0805 102.393 40.5178 102.537 39.8366C102.68 39.1553 102.751 38.0998 102.751 36.6675V21.3031C102.751 19.8721 102.68 18.8153 102.537 18.134C102.394 17.4528 102.116 16.8902 101.7 16.4449C101.35 16.0426 100.94 15.7502 100.473 15.5692C100.052 15.4065 99.5205 15.3001 98.8788 15.25C98.757 15.2402 98.6624 15.1338 98.6624 15.0029C98.6624 14.8659 98.7661 14.7559 98.8931 14.7559H110.872C111.002 14.7571 111.104 14.8672 111.104 15.0041Z" fill="#FFE594"/>
<path d="M112.859 42.9436L112.922 34.9103C112.923 34.7575 113.058 34.6364 113.22 34.6425H113.222C113.347 34.6474 113.453 34.7293 113.485 34.8418C114.091 36.9358 114.806 38.5931 115.633 39.8137C117.234 42.1364 119.246 43.2971 121.67 43.2971C123.359 43.2971 124.754 42.7638 125.856 41.696C126.958 40.6295 127.509 39.278 127.509 37.6427C127.509 36.9358 127.388 36.2154 127.146 35.4803C126.903 34.7464 126.577 34.1153 126.166 33.5882C125.739 33.0476 125.142 32.5278 124.37 32.0287C123.599 31.5297 122.421 30.8998 120.834 30.1366C119.438 29.4712 118.37 28.9098 117.628 28.4524C116.887 27.995 116.288 27.5314 115.833 27.0593C114.569 25.7567 113.938 24.1704 113.938 22.299C113.938 21.1493 114.184 20.04 114.675 18.9734C115.168 17.9069 115.854 16.992 116.735 16.2301C118.292 14.8724 120.135 14.1924 122.265 14.1924C122.955 14.1924 123.594 14.2584 124.183 14.3893C124.77 14.5214 125.555 14.7807 126.54 15.1684C127.274 15.4461 127.775 15.6222 128.039 15.698C128.303 15.7738 128.538 15.8118 128.744 15.8118C129.21 15.8118 129.538 15.5219 129.725 14.9409C129.762 14.8284 129.873 14.7513 129.998 14.7513H130.005C130.161 14.7513 130.288 14.8688 130.292 15.0167L130.436 22.7296C130.438 22.88 130.31 23.0035 130.149 23.0035C130.022 23.0035 129.91 22.9228 129.875 22.8066C129.504 21.586 129.182 20.643 128.911 19.9788C128.625 19.2792 128.284 18.631 127.889 18.0353C127.17 16.9541 126.378 16.1542 125.514 15.6344C124.649 15.1146 123.652 14.8553 122.523 14.8553C120.881 14.8553 119.583 15.3825 118.63 16.4368C118.235 16.8673 117.923 17.3736 117.696 17.9558C117.469 18.538 117.355 19.1214 117.355 19.7036C117.355 22.0202 118.931 23.8866 122.085 25.3017L125.187 26.7168C127.578 27.7846 129.3 28.9637 130.357 30.254C131.56 31.6973 132.161 33.3754 132.161 35.2895C132.161 36.5615 131.889 37.7785 131.346 38.9392C130.582 40.5561 129.436 41.8049 127.909 42.6831C126.381 43.5613 124.583 44.0004 122.512 44.0004C120.616 44.0004 118.795 43.6469 117.048 42.9399C116.136 42.5657 115.593 42.3516 115.417 42.2954C115.241 42.2403 115.042 42.2122 114.822 42.2122C114.174 42.2122 113.712 42.4935 113.436 43.0561C113.39 43.1503 113.288 43.2102 113.178 43.2102H113.148C112.986 43.2151 112.858 43.0928 112.859 42.9436Z" fill="#FFE594"/>
<path d="M106.543 4.02935V10.1815C106.543 11.9048 105.062 13.3028 103.234 13.3028H103.227V7.12867C103.227 5.40044 104.711 4 106.543 4" fill="#FFE594"/>
</svg>
