<svg width="22" height="21" viewBox="0 0 22 21" fill="none" xmlns="http://www.w3.org/2000/svg">
<path d="M3.74038 12.3685L5.69351 10.9816C6.24445 10.5904 6.80305 10.3282 7.44034 10.1585C8.17201 9.96361 8.5 9.56441 8.5 8.71101C8.5 6.54629 13.5 6.31595 13.5 8.71101C13.5 9.56441 13.828 9.96361 14.5597 10.1585C15.202 10.3295 15.7599 10.5934 16.3065 10.9816L18.2596 12.3685C19.1434 12.9961 19.5547 13.2995 19.7842 13.7819C20 14.2358 20 14.768 20 15.8324C20 17.7461 20 18.703 19.4642 19.3164C18.8152 20.0593 17.128 19.9955 16.0917 19.9955H5.90833C4.87197 19.9955 3.21909 20.0986 2.5358 19.3164C2 18.703 2 17.7461 2 15.8324C2 14.768 2 14.2358 2.21584 13.7819C2.44526 13.2995 2.85662 12.9961 3.74038 12.3685Z" stroke="#DCDCDC" stroke-width="1.5"/>
<path d="M13 15C13 16.1046 12.1046 17 11 17C9.8954 17 9 16.1046 9 15C9 13.8954 9.8954 13 11 13C12.1046 13 13 13.8954 13 15Z" stroke="#DCDCDC" stroke-width="1.5"/>
<path d="M5.96014 1.69772C4.6417 2.07415 3.69384 2.54112 2.82645 3.10455C1.45318 3.9966 0.864431 5.60404 1.02607 7.15513C1.09439 7.81068 1.62064 8.1241 2.23089 7.95455C2.69451 7.82571 3.15888 7.7003 3.61961 7.56364C4.96706 7.16397 5.28399 6.67812 5.47124 5.29885L5.96014 1.69772ZM5.96014 1.69772C9.2186 0.767428 12.7814 0.767428 16.0399 1.69772M16.0399 1.69772C17.3583 2.07415 18.3062 2.54112 19.1735 3.10455C20.5468 3.9966 21.1356 5.60404 20.9739 7.15513C20.9056 7.81068 20.3794 8.1241 19.7691 7.95455C19.3055 7.82571 18.8411 7.7003 18.3804 7.56364C17.0329 7.16397 16.716 6.67812 16.5288 5.29885L16.0399 1.69772Z" stroke="#DCDCDC" stroke-width="1.5" stroke-linejoin="round"/>
</svg>
