<svg width="26" height="26" viewBox="0 0 26 26" fill="none" xmlns="http://www.w3.org/2000/svg">
<g id="Group 13">
<path id="Vector" d="M5.79999 20.1692C5.95443 21.7393 6.30346 22.7961 7.09228 23.5849C8.50714 24.9998 10.7843 24.9998 15.3387 24.9998C19.893 24.9998 22.1703 24.9998 23.5851 23.5849C25 22.1701 25 19.8928 25 15.3385C25 10.7841 25 8.50696 23.5851 7.0921C22.7963 6.30328 21.7395 5.95424 20.1694 5.7998" stroke="#141B34" stroke-width="1.5"/>
<path id="Vector_2" d="M1 10.6C1 6.07451 1 3.81178 2.40588 2.40588C3.81178 1 6.07451 1 10.6 1C15.1254 1 17.3883 1 18.7941 2.40588C20.2 3.81178 20.2 6.07451 20.2 10.6C20.2 15.1254 20.2 17.3883 18.7941 18.7941C17.3883 20.2 15.1254 20.2 10.6 20.2C6.07451 20.2 3.81178 20.2 2.40588 18.7941C1 17.3883 1 15.1254 1 10.6Z" stroke="#141B34" stroke-width="1.5"/>
<path id="Vector_3" d="M4.59998 20.1996C8.70471 14.498 13.3176 6.93656 20.2 12.6076" stroke="#141B34" stroke-width="1.5"/>
</g>
</svg>
